<?xml version="1.0" encoding="UTF-8" ?>
<!DOCTYPE svg PUBLIC "-//W3C//DTD SVG 1.1//EN" "http://www.w3.org/Graphics/SVG/1.1/DTD/svg11.dtd">
<svg width="512pt" height="512pt" viewBox="0 0 512 512" version="1.1" xmlns="http://www.w3.org/2000/svg">
<g id="#000000ff">
<path fill="#ffffff" opacity="1.00" d=" M 207.51 10.73 C 241.34 4.58 276.37 4.85 310.04 11.85 C 343.53 18.87 375.41 33.09 403.34 52.80 C 441.32 79.22 471.53 116.44 490.30 158.68 C 504.56 190.21 511.47 224.80 512.00 259.34 L 512.00 265.52 C 511.33 287.00 509.05 308.55 503.26 329.29 C 492.42 370.71 469.96 408.62 440.62 439.62 C 414.06 467.76 380.78 489.50 344.34 502.50 C 339.55 504.43 334.46 506.51 329.18 505.43 C 323.37 504.56 319.60 498.61 319.70 493.00 C 319.53 468.47 319.80 443.92 319.57 419.38 C 319.32 403.34 314.81 386.24 302.41 375.24 C 316.43 373.43 330.52 371.37 344.00 366.94 C 365.60 359.33 386.78 347.12 399.54 327.54 C 410.99 309.48 416.67 288.26 418.48 267.10 C 420.41 246.72 419.33 225.41 410.57 206.59 C 406.23 197.00 400.26 188.15 393.04 180.48 C 398.70 165.68 399.99 149.34 396.74 133.83 C 395.35 126.44 392.94 119.31 390.38 112.26 C 378.27 109.50 366.27 114.66 355.32 119.31 C 342.82 124.27 331.29 131.32 320.01 138.59 C 278.34 127.16 233.66 127.15 191.99 138.59 C 181.60 131.77 170.94 125.23 159.32 120.70 C 147.36 115.75 134.57 109.58 121.30 112.23 C 114.66 129.81 111.00 149.19 115.22 167.79 C 115.96 171.99 117.67 175.92 118.80 180.01 C 118.41 181.39 117.16 182.33 116.32 183.45 C 101.34 200.25 93.32 222.64 92.79 245.03 C 92.42 265.16 94.56 285.61 101.50 304.61 C 105.89 317.07 112.16 329.06 121.26 338.74 C 131.88 350.19 145.72 358.09 160.01 364.06 C 175.66 370.64 192.60 373.04 209.30 375.27 C 203.81 380.77 199.21 387.27 196.71 394.68 C 194.73 399.47 194.09 404.64 192.92 409.66 C 182.91 414.18 171.93 416.18 160.98 416.17 C 148.56 416.81 136.75 410.43 128.41 401.58 C 124.38 397.45 121.27 392.57 118.28 387.68 C 113.54 379.94 106.95 373.29 99.03 368.84 C 91.24 363.84 81.69 360.70 72.42 362.56 C 70.32 362.95 67.08 364.31 68.05 367.00 C 70.24 372.09 74.71 375.82 79.39 378.57 C 86.10 382.32 91.03 388.45 95.28 394.71 C 100.62 401.97 104.10 410.35 107.53 418.62 C 113.22 432.08 126.29 441.37 140.22 444.78 C 157.33 448.31 175.16 448.83 192.32 445.28 C 192.39 460.86 192.52 476.45 192.64 492.03 C 192.76 495.91 191.50 499.95 188.56 502.60 C 185.16 505.94 179.93 506.11 175.51 505.26 C 136.07 492.49 99.79 469.84 71.37 439.61 C 50.63 417.66 33.33 392.37 21.13 364.72 C 9.15 337.68 2.40 308.42 0.59 278.93 C 0.45 274.17 0.29 269.40 0.00 264.65 L 0.00 259.39 C 0.39 251.61 0.41 243.81 1.39 236.07 C 5.98 184.64 27.71 135.31 61.07 96.07 C 98.38 52.23 150.87 21.34 207.51 10.73 Z" />
</g>
</svg>
