<?xml version="1.0" encoding="UTF-8" ?>
<!DOCTYPE svg PUBLIC "-//W3C//DTD SVG 1.1//EN" "http://www.w3.org/Graphics/SVG/1.1/DTD/svg11.dtd">
<svg width="512pt" height="512pt" viewBox="0 0 512 512" version="1.1" xmlns="http://www.w3.org/2000/svg">
<g id="#0077b7ff">
<path fill="#ffffff" opacity="1.00" d=" M 45.54 0.00 L 466.36 0.00 C 479.65 0.44 492.79 6.41 501.20 16.82 C 508.04 24.77 511.49 35.14 512.00 45.52 L 512.00 466.42 C 511.51 476.81 508.06 487.19 501.22 495.15 C 492.83 505.56 479.72 511.53 466.44 512.00 L 45.62 512.00 C 32.32 511.55 19.19 505.58 10.78 495.16 C 3.96 487.21 0.50 476.84 0.00 466.46 L 0.00 45.57 C 0.50 35.19 3.94 24.83 10.76 16.87 C 19.15 6.45 32.25 0.48 45.54 0.00 M 104.51 57.73 C 88.46 61.20 74.31 72.38 67.24 87.21 C 61.63 98.73 60.27 112.25 63.56 124.64 C 67.35 139.54 77.82 152.57 91.55 159.47 C 104.59 166.23 120.42 167.23 134.26 162.36 C 146.41 158.12 156.96 149.44 163.37 138.27 C 170.77 125.70 172.71 110.07 168.67 96.05 C 164.58 81.27 153.84 68.56 140.04 61.92 C 129.12 56.56 116.38 55.16 104.51 57.73 M 342.92 185.08 C 332.66 186.42 322.39 188.57 313.03 193.10 C 299.67 198.90 289.00 209.42 280.80 221.26 C 280.64 214.16 280.88 207.06 280.69 199.96 C 280.49 193.53 274.48 187.95 268.06 188.12 C 248.36 188.08 228.66 188.07 208.96 188.13 C 202.24 188.02 196.20 194.18 196.43 200.90 C 196.37 281.29 196.43 361.68 196.40 442.07 C 195.87 449.06 202.00 455.75 209.07 455.55 C 228.74 455.57 248.41 455.58 268.08 455.54 C 274.75 455.76 280.90 449.70 280.72 443.02 C 280.79 400.35 280.73 357.69 280.75 315.03 C 281.09 306.18 283.02 297.45 285.87 289.08 C 289.30 279.74 294.42 270.62 302.56 264.60 C 313.40 256.37 328.18 255.08 341.07 258.37 C 351.24 260.87 359.81 268.27 364.39 277.61 C 371.78 292.21 372.11 309.04 371.92 325.04 C 371.92 364.35 371.88 403.66 371.93 442.97 C 371.72 449.84 378.16 455.94 384.99 455.56 C 404.99 455.57 424.99 455.56 444.99 455.56 C 451.90 456.05 458.40 449.90 458.25 442.97 C 458.32 417.63 458.26 392.29 458.28 366.95 C 458.14 344.96 458.63 322.94 457.81 300.96 C 456.94 277.98 454.37 254.49 444.74 233.35 C 437.42 216.92 425.01 202.36 408.72 194.33 C 388.51 184.10 365.08 182.87 342.92 185.08 M 84.36 188.53 C 80.08 189.56 76.42 192.86 74.94 197.01 C 73.87 199.89 74.13 203.03 74.08 206.05 C 74.14 284.72 74.04 363.40 74.13 442.07 C 73.97 449.02 79.98 455.37 86.94 455.50 C 105.65 455.65 124.37 455.50 143.08 455.57 C 146.03 455.65 149.09 455.29 151.67 453.74 C 156.18 451.25 158.71 446.03 158.44 440.95 C 158.44 362.97 158.43 284.99 158.44 207.01 C 158.43 202.83 158.83 198.25 156.42 194.58 C 153.91 190.28 148.89 187.86 143.97 188.10 C 125.98 188.08 107.99 188.12 90.00 188.08 C 88.12 188.10 86.21 188.10 84.36 188.53 Z" />
</g>
</svg>
