<?xml version="1.0" encoding="UTF-8" ?>
<!DOCTYPE svg PUBLIC "-//W3C//DTD SVG 1.1//EN" "http://www.w3.org/Graphics/SVG/1.1/DTD/svg11.dtd">
<svg width="1000pt" height="1000pt" viewBox="0 0 1000 1000" version="1.1" xmlns="http://www.w3.org/2000/svg">
<g id="#000000ff">
<path fill="#000000" opacity="1.00" d=" M 475.14 50.14 C 558.49 45.46 643.16 64.33 716.31 104.67 C 782.85 141.05 839.88 194.58 880.50 258.60 C 914.64 312.18 937.13 373.11 946.02 436.01 C 954.30 494.49 951.16 554.60 936.55 611.84 C 916.57 690.61 874.51 763.60 816.57 820.56 C 759.06 877.63 685.81 918.70 607.04 937.74 C 544.99 952.88 479.73 954.57 416.96 942.88 C 350.86 930.68 287.67 903.23 233.56 863.37 C 174.02 819.71 125.35 761.27 93.54 694.61 C 53.45 611.55 40.36 516.00 55.68 425.12 C 67.88 351.15 99.26 280.51 145.68 221.67 C 188.63 166.91 244.45 122.29 307.40 92.58 C 359.83 67.67 417.18 53.27 475.14 50.14 M 385.24 229.02 C 385.26 253.01 385.25 277.00 385.25 300.99 C 405.08 301.00 424.92 301.01 444.75 300.99 C 444.75 293.33 444.74 285.67 444.75 278.01 C 433.31 277.93 421.87 278.13 410.43 277.90 C 410.58 270.10 410.45 262.30 410.50 254.50 C 421.92 254.48 433.34 254.52 444.76 254.48 C 444.74 245.99 444.75 237.50 444.75 229.01 C 424.91 229.00 405.08 228.98 385.24 229.02 M 470.51 229.00 C 470.59 237.35 470.32 245.70 470.61 254.04 C 472.92 257.45 476.37 259.87 479.20 262.82 C 484.22 268.04 489.72 272.77 494.50 278.22 C 486.51 277.77 478.50 278.10 470.51 278.00 C 470.50 285.67 470.50 293.33 470.51 301.00 C 490.34 301.00 510.17 301.00 530.00 301.00 C 530.00 293.37 530.00 285.75 530.00 278.13 C 522.11 270.04 513.74 262.43 505.95 254.23 C 513.96 254.59 521.98 254.50 530.00 254.49 C 530.00 246.00 530.00 237.50 530.00 229.00 C 510.17 229.00 490.34 229.00 470.51 229.00 M 555.25 229.01 C 555.29 237.04 555.18 245.07 555.28 253.10 C 555.14 254.63 556.56 255.57 557.44 256.61 C 564.70 263.85 572.19 270.85 579.32 278.22 C 571.30 277.78 563.27 278.08 555.25 278.01 C 555.25 285.67 555.25 293.33 555.25 300.99 C 575.08 301.01 594.91 301.01 614.75 300.99 C 614.78 293.39 614.35 285.80 614.80 278.21 C 606.78 270.11 598.53 262.26 590.45 254.23 C 598.54 254.69 606.64 254.47 614.74 254.45 C 614.76 245.97 614.74 237.49 614.75 229.01 C 594.92 228.99 575.08 228.99 555.25 229.01 M 306.65 335.74 C 318.78 466.72 330.73 597.73 343.00 728.70 C 380.72 738.71 418.38 748.94 456.07 759.07 C 470.72 762.91 485.28 767.22 500.01 770.70 C 514.04 767.39 527.90 763.26 541.86 759.62 C 580.24 749.30 618.59 738.90 657.00 728.69 C 669.27 597.72 681.21 466.72 693.35 335.74 C 564.45 335.75 435.55 335.75 306.65 335.74 Z" />
<path fill="#000000" opacity="1.00" d=" M 460.99 414.75 C 513.96 414.16 566.95 414.74 619.92 414.41 C 618.93 430.37 617.57 446.30 616.46 462.25 C 577.76 478.68 538.99 494.92 500.35 511.47 C 537.59 511.54 574.82 511.47 612.06 511.51 C 608.17 559.64 603.99 607.75 600.15 655.89 C 599.99 657.35 599.80 658.81 599.59 660.27 C 567.11 669.12 534.70 678.24 502.25 687.23 C 500.44 687.84 498.52 687.65 496.74 687.08 C 465.03 677.76 433.29 668.54 401.55 659.31 C 399.41 634.71 397.28 610.11 395.40 585.49 C 411.48 585.50 427.57 585.51 443.66 585.48 C 444.58 597.93 445.67 610.36 446.71 622.80 C 463.56 627.50 480.40 632.23 497.32 636.68 C 499.13 637.09 501.03 637.85 502.88 637.11 C 520.20 632.09 537.44 626.77 554.66 621.42 C 555.66 600.76 557.35 580.14 558.39 559.48 C 502.75 559.51 447.10 559.51 391.46 559.48 C 390.34 543.47 389.16 527.46 388.41 511.43 C 427.47 495.27 466.33 478.61 505.31 462.27 C 464.85 462.69 424.38 462.61 383.93 463.19 C 381.51 447.05 379.17 430.90 376.81 414.75 C 404.87 414.74 432.93 414.75 460.99 414.75 Z" />
</g>
</svg>
