<?xml version="1.0" encoding="UTF-8" ?>
<!DOCTYPE svg PUBLIC "-//W3C//DTD SVG 1.1//EN" "http://www.w3.org/Graphics/SVG/1.1/DTD/svg11.dtd">
<svg width="960pt" height="960pt" viewBox="0 0 960 960" version="1.1" xmlns="http://www.w3.org/2000/svg">
<g id="#379ad6ff">
<path fill="#379ad6" opacity="1.00" d=" M 448.53 48.76 C 531.18 42.63 615.51 60.76 688.07 100.89 C 751.59 135.75 806.05 186.86 844.92 248.00 C 879.52 302.19 901.72 364.24 909.28 428.09 C 917.19 494.02 909.92 561.78 887.68 624.38 C 869.98 674.44 842.86 721.13 808.28 761.40 C 774.33 801.01 733.17 834.42 687.42 859.47 C 632.40 889.67 570.69 907.55 508.05 911.47 C 436.39 916.16 363.58 902.83 298.45 872.52 C 232.61 842.10 174.74 794.73 131.76 736.32 C 87.89 676.98 59.65 606.20 50.84 532.92 C 42.27 462.97 50.85 390.92 76.19 325.13 C 101.76 258.33 144.32 198.18 198.64 151.68 C 249.79 107.72 311.36 75.95 376.91 60.00 C 400.41 54.25 424.40 50.48 448.53 48.76 M 369.83 219.83 C 369.84 242.95 369.83 266.07 369.83 289.18 C 388.90 289.18 407.98 289.18 427.05 289.18 C 427.05 281.74 427.05 274.29 427.05 266.85 C 416.13 266.85 405.21 266.86 394.30 266.84 C 394.30 259.34 394.29 251.84 394.30 244.34 C 405.21 244.32 416.13 244.33 427.05 244.33 C 427.06 236.16 427.05 228.00 427.05 219.83 C 407.98 219.84 388.90 219.83 369.83 219.83 M 451.63 219.84 C 451.63 227.97 451.67 236.11 451.61 244.24 C 459.08 251.91 467.01 259.13 474.40 266.89 C 466.81 266.82 459.22 266.85 451.63 266.87 C 451.64 274.30 451.64 281.74 451.63 289.18 C 470.75 289.19 489.86 289.18 508.98 289.18 C 508.98 281.73 508.97 274.28 508.99 266.83 C 501.33 259.32 493.63 251.85 486.01 244.30 C 493.67 244.35 501.32 244.32 508.98 244.33 C 508.97 236.16 508.98 228.00 508.98 219.83 C 489.86 219.83 470.75 219.82 451.63 219.84 M 532.95 219.83 C 532.98 227.58 532.89 235.34 532.97 243.09 C 532.75 244.47 533.92 245.33 534.75 246.21 C 541.75 253.09 548.82 259.89 555.70 266.89 C 548.11 266.83 540.53 266.86 532.95 266.86 C 532.95 274.30 532.95 281.74 532.95 289.18 C 552.02 289.18 571.09 289.18 590.17 289.18 C 590.18 281.75 590.12 274.32 590.20 266.89 C 582.70 259.24 574.90 251.89 567.34 244.31 C 574.95 244.35 582.55 244.32 590.16 244.33 C 590.17 236.16 590.16 228.00 590.17 219.83 C 571.09 219.83 552.02 219.83 532.95 219.83 M 294.20 322.24 C 305.94 448.03 317.38 573.85 329.13 699.64 C 377.26 712.49 425.34 725.53 473.45 738.46 C 476.19 739.03 478.97 740.57 481.82 739.73 C 531.50 726.36 581.17 712.92 630.88 699.63 C 642.61 573.84 654.06 448.03 665.80 322.24 C 541.93 322.25 418.07 322.25 294.20 322.24 Z" />
<path fill="#379ad6" opacity="1.00" d=" M 361.90 398.33 C 439.62 398.22 517.34 397.98 595.06 397.99 C 593.98 413.20 592.71 428.39 591.74 443.61 C 554.25 459.49 516.75 475.34 479.26 491.22 C 515.32 491.18 551.37 491.25 587.43 491.19 C 583.60 538.67 579.49 586.14 575.68 633.63 C 544.36 642.30 513.05 650.99 481.74 659.70 C 480.30 660.23 478.80 660.02 477.38 659.58 C 446.79 650.59 416.16 641.73 385.56 632.78 C 383.60 609.22 381.54 585.66 379.68 562.09 C 395.06 562.18 410.43 562.08 425.80 562.14 C 426.68 574.13 427.70 586.11 428.75 598.08 C 446.18 602.77 463.52 607.85 481.02 612.26 C 498.26 607.39 515.36 601.94 532.53 596.76 C 533.65 576.83 535.13 556.92 536.21 536.99 C 482.77 536.99 429.33 536.97 375.90 537.00 C 374.82 521.74 373.83 506.48 372.93 491.21 C 410.57 475.41 448.17 459.52 485.78 443.64 C 446.75 444.05 407.71 444.04 368.68 444.49 C 366.40 429.10 364.14 413.72 361.90 398.33 Z" />
</g>
<g id="#ffffffff">
</g>
</svg>
