<?xml version="1.0" encoding="UTF-8" ?>
<!DOCTYPE svg PUBLIC "-//W3C//DTD SVG 1.1//EN" "http://www.w3.org/Graphics/SVG/1.1/DTD/svg11.dtd">
<svg width="1111pt" height="1111pt" viewBox="0 0 1111 1111" version="1.1" xmlns="http://www.w3.org/2000/svg">
<g id="#000000ff">
<path fill="#000000" opacity="1.00" d=" M 535.32 15.50 C 606.96 12.81 679.21 24.37 746.31 49.74 C 815.50 75.74 879.08 116.36 932.06 167.87 C 972.19 206.85 1006.33 252.02 1032.60 301.42 C 1056.62 346.47 1074.13 394.97 1084.60 444.93 C 1103.78 537.23 1098.59 634.53 1069.03 724.09 C 1044.88 798.50 1003.89 867.30 950.44 924.38 C 897.56 981.08 832.37 1026.30 760.59 1055.63 C 675.22 1090.82 580.71 1103.14 489.14 1091.81 C 440.01 1085.84 391.67 1073.13 346.08 1053.84 C 233.28 1006.70 137.69 919.86 79.81 812.19 C 39.60 738.05 17.38 654.28 15.33 569.98 C 12.38 469.91 38.08 369.12 88.82 282.79 C 122.99 224.36 168.28 172.50 221.46 130.64 C 268.79 93.34 322.39 64.02 379.39 44.44 C 429.55 27.15 482.30 17.43 535.32 15.50 M 163.87 458.18 C 149.06 460.84 135.76 469.96 127.24 482.25 C 116.27 497.79 112.66 517.35 113.00 536.06 C 113.59 550.57 116.67 565.38 124.14 577.98 C 133.23 592.87 149.39 603.48 166.88 604.94 C 183.02 606.46 200.44 604.63 214.00 595.03 C 227.59 585.84 235.03 570.03 238.12 554.34 C 234.56 554.32 231.00 554.32 227.44 554.34 C 224.38 566.77 218.19 579.03 207.72 586.79 C 198.12 594.01 185.69 596.08 173.94 595.67 C 159.12 595.59 144.39 588.27 135.87 576.06 C 126.90 563.66 123.97 548.02 123.62 533.00 C 162.19 532.99 200.76 533.00 239.33 533.00 C 239.40 525.67 239.52 518.29 238.10 511.07 C 235.17 493.45 226.22 475.99 210.87 466.15 C 197.20 456.93 179.77 455.35 163.87 458.18 M 398.02 493.85 C 397.97 482.57 398.02 471.28 398.00 460.00 C 394.44 460.00 390.89 459.99 387.34 460.00 C 387.32 524.66 387.35 589.32 387.32 653.98 C 390.88 654.00 394.44 654.00 398.00 654.00 C 398.02 626.72 397.97 599.44 398.02 572.16 C 401.91 584.15 410.61 594.81 422.36 599.78 C 436.27 606.08 452.14 606.58 466.98 603.88 C 485.49 600.35 501.57 586.57 508.15 568.96 C 515.45 549.93 516.52 528.76 512.25 508.90 C 509.50 495.17 502.97 481.96 492.61 472.40 C 480.14 460.19 461.89 455.64 444.83 457.19 C 423.65 458.30 404.47 473.78 398.02 493.85 M 657.99 457.97 C 642.45 460.41 628.47 470.00 619.74 482.96 C 608.98 498.67 605.55 518.27 606.03 537.00 C 606.80 551.87 610.10 567.09 618.26 579.75 C 627.38 593.47 642.60 603.23 659.10 604.86 C 675.48 606.52 693.22 604.78 707.00 595.02 C 720.59 585.83 728.05 570.04 731.13 554.34 C 727.56 554.32 724.00 554.32 720.44 554.34 C 717.37 566.77 711.20 579.05 700.71 586.80 C 691.39 593.80 679.37 595.97 667.95 595.69 C 653.07 595.91 638.12 588.82 629.35 576.72 C 620.00 564.24 616.97 548.29 616.62 533.00 C 655.19 532.99 693.76 533.01 732.33 533.00 C 732.43 525.34 732.49 517.63 730.93 510.09 C 727.75 492.10 718.14 474.39 702.03 464.97 C 688.96 456.94 672.86 455.61 657.99 457.97 M 765.05 471.09 C 759.49 476.52 756.61 484.30 756.64 492.01 C 756.56 499.69 757.54 508.08 762.76 514.14 C 771.06 523.93 783.74 528.44 795.91 531.22 C 812.29 535.07 830.07 536.11 844.47 545.67 C 857.59 553.76 857.94 574.83 846.66 584.65 C 837.40 593.22 824.17 595.19 812.04 595.67 C 798.47 596.28 783.88 592.78 774.19 582.74 C 766.82 575.68 762.69 565.74 761.91 555.64 C 758.36 555.66 754.80 555.66 751.26 555.68 C 751.84 561.89 752.63 568.16 754.96 574.00 C 757.98 582.43 763.93 589.58 771.11 594.82 C 782.62 602.97 797.11 605.85 811.02 605.35 C 827.67 605.35 846.01 601.63 857.50 588.59 C 864.99 580.49 866.25 568.64 864.52 558.18 C 863.28 550.11 858.97 542.44 852.21 537.75 C 840.31 528.84 825.05 527.30 810.99 524.09 C 799.03 521.13 786.03 519.73 775.93 512.06 C 771.31 508.82 768.24 503.65 767.41 498.09 C 765.75 489.57 769.53 480.47 776.48 475.37 C 785.33 468.36 797.02 466.89 807.95 466.64 C 819.61 466.59 832.03 469.14 840.95 477.13 C 847.91 483.66 850.29 493.45 850.72 502.68 C 854.15 502.66 857.59 502.66 861.03 502.67 C 861.43 489.22 856.27 474.96 845.09 466.89 C 832.48 457.60 816.04 456.34 800.91 457.18 C 788.04 458.17 774.24 461.38 765.05 471.09 M 905.49 465.30 C 896.28 470.81 889.53 481.05 889.96 492.01 C 889.52 500.63 891.59 509.88 897.75 516.25 C 907.56 525.51 920.84 529.73 933.83 532.20 C 948.70 535.31 964.55 536.99 977.57 545.50 C 990.90 553.59 991.42 575.03 979.78 584.81 C 970.47 593.33 957.24 595.22 945.10 595.68 C 931.57 596.25 917.03 592.68 907.40 582.63 C 900.08 575.60 896.05 565.69 895.24 555.66 C 891.69 555.65 888.14 555.66 884.60 555.70 C 885.03 561.24 885.77 566.80 887.61 572.08 C 891.58 584.80 901.79 595.05 913.97 600.16 C 927.49 606.02 942.67 606.15 957.09 604.53 C 970.44 602.87 984.26 597.58 992.52 586.45 C 998.54 578.70 999.16 568.26 997.97 558.88 C 996.85 550.18 992.06 542.02 984.72 537.14 C 972.50 528.53 957.20 527.13 943.05 523.79 C 931.41 520.98 918.78 519.46 909.04 511.90 C 901.98 506.87 899.02 497.31 900.92 489.01 C 902.12 482.91 906.20 477.69 911.31 474.27 C 919.91 468.22 930.75 466.89 941.00 466.64 C 952.66 466.59 965.04 469.05 974.05 476.93 C 981.12 483.48 983.63 493.36 984.01 502.68 C 987.46 502.66 990.92 502.66 994.39 502.66 C 994.54 490.78 990.93 478.31 982.06 470.00 C 972.27 460.53 958.19 457.33 944.96 457.00 C 931.47 456.76 917.26 458.16 905.49 465.30 M 248.28 460.05 C 265.57 482.49 282.74 505.02 300.17 527.36 C 281.82 552.66 262.76 577.46 244.21 602.62 C 248.66 602.69 253.12 602.66 257.58 602.67 C 274.11 580.31 290.86 558.11 307.37 535.73 C 311.06 540.08 314.09 544.94 317.54 549.49 C 330.44 567.25 343.41 584.95 356.32 602.70 C 361.12 602.64 365.91 602.67 370.71 602.68 C 352.03 577.61 333.19 552.66 314.48 527.61 C 331.49 505.01 348.76 482.60 365.79 460.01 C 361.20 459.99 356.62 459.99 352.04 460.01 C 337.46 480.00 322.21 499.49 307.58 519.44 C 292.61 499.72 277.84 479.85 263.06 460.00 C 258.14 460.01 253.21 459.96 248.28 460.05 M 539.00 460.00 C 539.00 507.55 539.00 555.11 539.00 602.66 C 542.55 602.67 546.10 602.67 549.66 602.66 C 549.67 577.11 549.67 551.55 549.66 526.00 C 549.78 518.01 550.65 509.92 553.48 502.39 C 556.44 493.94 562.39 486.90 569.01 481.04 C 579.00 472.57 592.39 468.98 605.33 470.00 C 605.33 466.43 605.33 462.87 605.33 459.30 C 596.47 459.80 587.48 460.69 579.19 464.05 C 565.90 468.96 554.37 479.33 549.75 492.93 C 549.56 481.96 549.72 470.98 549.66 460.00 C 546.11 459.99 542.55 459.99 539.00 460.00 Z" />
<path fill="#000000" opacity="1.00" d=" M 139.83 482.85 C 149.43 472.24 163.73 466.21 178.03 466.63 C 193.10 466.42 208.04 473.87 216.76 486.19 C 224.70 496.99 227.79 510.49 228.75 523.65 C 193.82 523.69 158.89 523.65 123.96 523.67 C 125.51 509.03 129.75 493.99 139.83 482.85 Z" />
<path fill="#000000" opacity="1.00" d=" M 438.55 467.74 C 452.79 465.18 468.68 466.73 480.53 475.68 C 491.08 483.44 497.81 495.41 501.06 507.93 C 505.03 523.11 505.03 539.32 501.35 554.56 C 498.27 566.11 492.63 577.56 483.03 585.05 C 475.47 591.25 465.93 594.93 456.16 595.46 C 441.83 596.70 426.02 593.91 415.51 583.36 C 404.25 573.12 400.13 557.51 398.82 542.85 C 397.33 524.94 398.86 505.94 407.89 490.03 C 414.31 478.70 425.75 470.28 438.55 467.74 Z" />
<path fill="#000000" opacity="1.00" d=" M 635.89 479.84 C 647.26 469.03 663.86 464.71 679.19 467.29 C 692.32 469.34 704.38 477.32 711.41 488.59 C 718.18 498.98 720.83 511.44 721.76 523.64 C 686.83 523.70 651.90 523.64 616.97 523.67 C 618.61 507.68 623.65 490.96 635.89 479.84 Z" />
</g>
</svg>
