<?xml version="1.0" encoding="UTF-8" ?>
<!DOCTYPE svg PUBLIC "-//W3C//DTD SVG 1.1//EN" "http://www.w3.org/Graphics/SVG/1.1/DTD/svg11.dtd">
<svg width="1111pt" height="1111pt" viewBox="0 0 1111 1111" version="1.1" xmlns="http://www.w3.org/2000/svg">
<g id="#000000ff">
<path fill="#000000" opacity="1.00" d=" M 533.54 0.00 L 578.20 0.00 C 625.13 2.34 671.88 9.80 716.89 23.44 C 789.15 45.15 856.74 82.04 914.33 130.77 C 995.46 199.14 1056.47 291.18 1087.23 392.77 C 1100.96 437.49 1108.49 483.99 1111.00 530.67 L 1111.00 580.50 C 1108.51 626.49 1101.17 672.31 1087.80 716.43 C 1065.30 791.62 1026.31 861.73 974.75 920.86 C 923.93 979.24 860.76 1026.81 790.61 1059.53 C 752.72 1077.23 712.79 1090.51 671.89 1099.20 C 641.76 1105.65 611.08 1109.22 580.34 1111.00 L 530.51 1111.00 C 484.35 1108.51 438.39 1101.08 394.12 1087.64 C 305.33 1060.99 223.70 1011.25 158.80 945.12 C 108.43 893.85 68.09 832.73 40.90 766.20 C 22.84 721.95 10.55 675.35 4.43 627.95 C 2.07 610.88 1.05 593.67 0.00 576.49 L 0.00 531.50 C 1.06 517.34 1.98 503.16 3.74 489.06 C 7.25 458.57 13.45 428.41 22.04 398.96 C 44.04 323.33 82.61 252.64 133.98 192.97 C 174.51 145.93 222.94 105.71 276.62 74.49 C 329.87 43.51 388.40 21.60 448.91 9.99 C 476.82 4.51 505.15 1.48 533.54 0.00 M 523.40 222.41 C 502.56 243.29 481.68 264.12 460.84 285.00 C 476.68 300.68 491.95 316.92 508.03 332.35 C 518.98 342.93 529.55 353.91 540.44 364.55 C 550.64 361.31 561.79 361.04 572.09 364.01 C 588.53 368.59 602.14 381.86 607.52 398.01 C 611.42 409.14 610.93 421.43 607.42 432.60 C 619.63 444.02 631.15 456.17 643.07 467.89 C 656.76 481.58 670.46 495.27 684.14 508.97 C 693.11 505.95 702.86 505.21 712.13 507.18 C 729.50 510.52 744.58 523.42 750.89 539.90 C 754.62 549.39 755.28 559.93 753.39 569.90 C 750.55 584.31 741.42 597.43 728.66 604.79 C 716.52 611.99 701.46 614.37 687.79 610.64 C 671.26 606.43 657.23 593.65 651.47 577.60 C 646.90 565.30 647.26 551.36 652.00 539.17 C 628.20 515.42 604.48 491.61 580.67 467.88 C 580.71 480.57 580.58 493.27 580.73 505.97 C 581.56 515.97 580.45 525.98 580.67 535.99 C 580.66 564.65 580.67 593.31 580.66 621.97 C 581.32 633.28 580.86 644.61 581.01 655.94 C 591.29 661.07 599.89 669.63 604.86 680.01 C 610.86 692.00 611.97 706.33 607.90 719.10 C 603.29 734.83 590.76 747.88 575.35 753.38 C 567.29 756.22 558.53 757.44 550.05 756.13 C 534.03 753.94 519.05 744.20 511.11 730.04 C 504.01 717.80 502.09 702.66 505.96 689.05 C 510.16 673.65 521.82 660.43 536.62 654.42 C 536.48 644.62 537.15 634.84 537.00 625.04 C 536.95 571.43 537.10 517.82 536.93 464.21 C 522.57 458.30 510.94 445.82 506.41 430.93 C 502.61 419.04 503.49 405.97 507.96 394.40 C 481.75 368.32 455.64 342.12 429.49 315.97 C 414.62 331.61 399.05 346.58 383.89 361.93 C 329.57 416.25 275.25 470.58 220.93 524.89 C 208.17 538.34 205.76 560.14 214.79 576.24 C 217.68 582.33 222.98 586.67 227.58 591.40 C 327.42 691.23 427.23 791.07 527.07 890.88 C 543.74 906.03 572.17 905.12 587.73 888.77 C 687.25 789.26 786.76 689.73 886.28 590.23 C 890.94 585.79 895.15 580.73 897.77 574.80 C 905.18 558.71 902.12 538.21 889.43 525.62 C 788.76 424.93 688.07 324.27 587.41 223.58 C 578.13 213.26 563.73 208.03 549.99 209.58 C 539.97 210.59 530.50 215.31 523.40 222.41 Z" />
</g>
</svg>
