<?xml version="1.0" encoding="UTF-8" ?>
<!DOCTYPE svg PUBLIC "-//W3C//DTD SVG 1.1//EN" "http://www.w3.org/Graphics/SVG/1.1/DTD/svg11.dtd">
<svg width="800pt" height="800pt" viewBox="0 0 800 800" version="1.1" xmlns="http://www.w3.org/2000/svg">
<g id="#f05133ff">
<path fill="#f05133" opacity="1.00" d=" M 390.39 0.00 L 409.65 0.00 C 462.56 1.40 515.25 12.97 563.55 34.70 C 628.92 63.88 686.10 111.05 727.27 169.61 C 750.25 202.17 768.33 238.20 780.62 276.12 C 792.31 312.06 798.67 349.66 800.00 387.42 L 800.00 412.63 C 798.66 450.87 792.15 488.96 780.17 525.32 C 759.18 589.49 721.40 648.01 671.82 693.80 C 626.02 736.25 570.16 767.85 510.04 784.84 C 478.36 793.91 445.54 798.81 412.62 800.00 L 387.40 800.00 C 344.22 798.50 301.22 790.33 260.70 775.26 C 194.24 750.70 134.66 707.95 89.92 653.02 C 64.78 622.22 44.22 587.66 29.26 550.82 C 12.61 509.87 2.94 466.13 0.55 422.00 C 0.47 419.08 0.36 416.16 0.00 413.27 L 0.00 386.92 C 1.28 359.70 4.56 332.51 11.06 306.00 C 21.37 262.81 39.07 221.41 63.08 184.06 C 110.02 110.61 181.60 53.23 263.65 23.75 C 304.24 9.01 347.24 1.19 390.39 0.00 M 384.33 154.40 C 378.81 157.26 374.77 162.09 370.38 166.35 C 357.55 179.42 344.56 192.34 331.57 205.26 C 350.65 224.47 369.85 243.56 388.98 262.72 C 396.80 260.15 405.47 260.05 413.29 262.69 C 424.76 266.41 434.08 276.00 437.58 287.52 C 440.15 295.31 439.63 303.75 437.26 311.51 C 455.81 329.79 474.06 348.37 492.59 366.68 C 501.06 363.70 510.60 363.87 518.96 367.17 C 529.38 371.23 537.83 380.11 541.26 390.78 C 544.78 401.44 543.31 413.67 537.20 423.12 C 528.75 436.79 511.15 443.82 495.62 439.64 C 483.37 436.59 472.98 427.05 468.96 415.08 C 465.93 406.41 466.25 396.67 469.74 388.19 C 452.51 370.96 435.27 353.73 418.05 336.49 C 418.27 381.82 417.89 427.16 418.24 472.49 C 427.69 477.05 434.94 485.83 437.81 495.92 C 440.81 505.90 439.30 517.07 433.95 525.99 C 428.43 535.34 418.75 542.16 408.03 544.00 C 392.39 547.21 375.42 539.03 367.87 525.03 C 362.41 515.38 361.55 503.28 365.54 492.94 C 369.21 483.28 376.98 475.18 386.60 471.33 C 386.97 425.63 386.67 379.90 386.75 334.19 C 376.66 329.97 368.46 321.37 365.03 310.95 C 362.04 302.23 362.57 292.51 365.98 283.98 C 347.12 265.08 328.27 246.18 309.33 227.36 C 259.37 277.40 209.32 327.34 159.38 377.40 C 147.79 389.13 147.71 409.84 159.33 421.57 C 231.98 494.30 304.70 566.96 377.39 639.66 C 388.94 652.24 410.59 652.73 422.68 640.67 C 495.40 568.05 568.08 495.37 640.71 422.64 C 650.36 412.78 652.25 396.52 645.31 384.63 C 641.75 378.41 635.93 374.02 631.12 368.85 C 561.28 299.00 491.46 229.14 421.58 159.34 C 411.93 149.89 396.11 147.91 384.33 154.40 Z" />
</g>
<g id="#ffffffff">
</g>
</svg>
