<?xml version="1.0" encoding="UTF-8" ?>
<!DOCTYPE svg PUBLIC "-//W3C//DTD SVG 1.1//EN" "http://www.w3.org/Graphics/SVG/1.1/DTD/svg11.dtd">
<svg width="640pt" height="640pt" viewBox="0 0 640 640" version="1.1" xmlns="http://www.w3.org/2000/svg">
<g id="#e44d26ff">
<path fill="#e44d26" opacity="1.00" d=" M 294.56 32.85 C 336.07 29.22 378.38 34.53 417.59 48.69 C 462.10 64.64 502.48 91.86 534.10 127.00 C 555.72 150.93 573.28 178.52 585.79 208.24 C 600.66 243.50 608.31 281.77 608.24 320.04 C 608.33 363.82 598.24 407.59 578.90 446.88 C 551.94 502.04 506.83 548.09 452.24 576.20 C 418.46 593.70 381.15 604.35 343.22 607.32 C 300.44 610.77 256.88 604.65 216.81 589.24 C 184.01 576.67 153.58 558.01 127.47 534.53 C 95.72 506.06 70.37 470.47 53.94 431.11 C 37.94 392.97 30.46 351.33 31.92 310.00 C 33.54 259.27 48.97 209.08 76.15 166.22 C 106.72 117.69 152.07 78.64 204.66 55.74 C 233.12 43.29 263.62 35.54 294.56 32.85 M 219.16 145.15 C 219.17 160.87 219.18 176.58 219.15 192.29 C 224.43 192.29 229.71 192.28 234.99 192.30 C 234.99 187.04 234.99 181.78 234.99 176.53 C 239.79 176.53 244.59 176.53 249.39 176.52 C 249.38 181.78 249.38 187.04 249.39 192.30 C 254.61 192.28 259.83 192.28 265.06 192.30 C 265.06 176.59 265.06 160.87 265.06 145.16 C 259.83 145.17 254.60 145.16 249.37 145.16 C 249.39 150.39 249.40 155.61 249.37 160.83 C 244.57 160.81 239.78 160.81 234.99 160.83 C 234.98 155.60 235.00 150.38 234.98 145.16 C 229.70 145.17 224.43 145.17 219.16 145.15 M 272.01 145.16 C 271.99 150.39 271.99 155.62 272.01 160.85 C 276.65 160.84 281.30 160.84 285.95 160.85 C 285.89 171.33 285.93 181.82 285.92 192.30 C 291.14 192.29 296.36 192.28 301.59 192.30 C 301.59 181.82 301.60 171.33 301.58 160.85 C 306.21 160.84 310.85 160.84 315.48 160.85 C 315.49 155.62 315.49 150.39 315.48 145.16 C 300.99 145.17 286.50 145.17 272.01 145.16 M 322.40 145.16 C 322.44 160.88 322.40 176.59 322.42 192.30 C 327.56 192.28 332.70 192.29 337.85 192.30 C 337.81 184.49 337.85 176.69 337.82 168.89 C 341.44 174.58 345.10 180.23 348.80 185.87 C 352.55 180.25 356.07 174.48 359.89 168.91 C 359.79 176.71 359.86 184.50 359.84 192.30 C 365.05 192.29 370.26 192.29 375.47 192.29 C 375.46 176.58 375.48 160.87 375.46 145.16 C 370.01 145.16 364.56 145.19 359.12 145.14 C 355.66 150.65 352.36 156.25 348.93 161.76 C 345.52 156.23 342.18 150.66 338.76 145.14 C 333.30 145.19 327.85 145.16 322.40 145.16 M 383.30 145.16 C 383.36 160.88 383.25 176.60 383.35 192.32 C 395.96 192.25 408.57 192.31 421.18 192.29 C 421.17 187.13 421.17 181.97 421.18 176.82 C 413.80 176.81 406.42 176.82 399.05 176.81 C 399.01 166.26 399.05 155.71 399.03 145.16 C 393.78 145.17 388.54 145.16 383.30 145.16 M 196.12 213.96 C 203.76 298.20 211.15 382.47 218.71 466.72 C 252.44 476.00 286.11 485.58 319.88 494.68 C 353.73 485.50 387.52 476.04 421.31 466.60 C 428.78 382.38 436.26 298.16 443.88 213.96 C 361.29 213.96 278.71 213.95 196.12 213.96 Z" />
<path fill="#e44d26" opacity="1.00" d=" M 241.68 264.87 C 293.57 264.87 345.46 264.87 397.35 264.87 C 396.60 275.58 395.58 286.27 394.88 296.99 C 355.19 297.02 315.51 296.99 275.82 297.01 C 276.85 307.32 278.08 317.62 279.13 327.94 C 316.46 327.90 353.79 327.94 391.12 327.92 C 388.64 359.90 385.85 391.85 383.34 423.82 C 363.33 429.52 343.19 434.74 323.15 440.34 C 321.78 440.65 320.33 441.28 318.92 440.77 C 298.02 435.09 277.06 429.60 256.18 423.84 C 254.81 407.52 253.01 391.24 251.50 374.93 C 261.96 374.93 272.42 374.93 282.88 374.93 C 283.53 382.97 284.63 390.95 285.25 398.99 C 296.77 402.45 308.38 405.56 319.92 408.96 C 330.63 405.87 341.35 402.82 352.07 399.81 C 353.01 399.38 354.79 399.49 354.62 397.98 C 355.73 385.14 356.72 372.28 357.94 359.45 C 322.09 359.51 286.24 359.40 250.39 359.50 C 247.47 327.96 244.52 296.42 241.68 264.87 Z" />
</g>
<g id="#ffffffff">
</g>
</svg>
