<?xml version="1.0" encoding="UTF-8" ?>
<!DOCTYPE svg PUBLIC "-//W3C//DTD SVG 1.1//EN" "http://www.w3.org/Graphics/SVG/1.1/DTD/svg11.dtd">
<svg width="692pt" height="696pt" viewBox="0 0 692 696" version="1.1" xmlns="http://www.w3.org/2000/svg">
<g id="#000000ff">
<path fill="#000000" opacity="1.00" d=" M 325.91 0.00 L 365.19 0.00 C 390.04 2.07 414.83 5.74 438.87 12.48 C 514.99 33.61 582.97 82.13 628.26 146.79 C 662.24 194.73 683.24 251.51 689.73 309.85 C 690.79 315.89 690.21 322.17 692.00 328.07 L 692.00 367.36 C 691.49 369.21 691.07 371.10 690.92 373.02 C 687.70 416.25 676.69 458.94 658.08 498.12 C 641.61 532.88 619.27 564.85 592.39 592.35 C 568.22 617.13 540.23 638.08 509.91 654.73 C 471.98 675.47 429.97 688.47 387.11 693.81 C 379.89 694.77 372.61 695.16 365.38 696.00 L 326.62 696.00 C 304.02 694.12 281.48 691.04 259.50 685.37 C 186.60 666.71 120.44 623.15 74.17 563.86 C 43.38 525.05 21.48 479.35 9.80 431.25 C 4.56 410.98 1.85 390.18 0.00 369.37 L 0.00 327.80 C 2.15 300.40 6.68 273.14 14.65 246.81 C 32.83 185.53 68.58 129.66 116.35 87.23 C 153.12 54.42 196.95 29.52 244.04 14.98 C 270.62 6.75 298.23 2.33 325.91 0.00 M 423.88 200.54 C 409.55 204.53 395.91 211.82 385.59 222.66 C 375.57 232.05 368.99 244.72 365.53 257.91 C 361.14 275.93 362.46 295.15 368.36 312.67 C 375.07 330.81 388.87 345.62 405.04 355.88 C 423.51 368.05 444.52 375.42 464.54 384.53 C 475.17 389.99 487.24 394.47 494.30 404.71 C 499.08 411.05 499.78 419.39 498.64 427.00 C 496.55 436.59 489.16 444.55 480.11 448.09 C 465.70 454.12 449.25 453.74 434.43 449.41 C 417.00 444.09 403.96 429.93 394.63 414.85 C 377.78 424.50 361.07 434.39 344.18 443.97 C 352.53 459.76 364.33 473.77 378.82 484.26 C 394.49 495.43 412.93 502.46 431.91 505.41 C 452.83 508.79 474.49 508.11 495.05 502.85 C 513.92 497.79 532.09 487.84 544.28 472.27 C 555.90 457.59 561.35 438.62 561.02 420.04 C 561.18 402.51 557.13 384.45 546.94 369.94 C 536.78 355.39 522.12 344.69 506.68 336.29 C 487.98 325.85 467.69 318.74 448.43 309.45 C 442.92 306.52 437.38 303.44 432.82 299.12 C 420.65 288.54 420.79 266.58 433.89 256.81 C 443.68 249.36 457.17 249.21 468.55 252.58 C 480.38 256.36 488.61 266.68 494.60 277.05 C 510.66 266.80 526.64 256.43 542.70 246.18 C 531.81 227.34 515.72 210.35 494.72 203.17 C 472.12 194.97 447.08 194.63 423.88 200.54 M 247.51 200.00 C 247.49 273.02 247.52 346.05 247.49 419.07 C 246.92 428.95 244.48 439.90 236.25 446.29 C 226.59 453.12 213.75 453.06 202.62 450.62 C 188.26 446.20 180.66 432.18 173.41 420.16 C 156.82 430.52 139.95 440.41 123.34 450.72 C 132.48 470.23 147.76 487.24 167.31 496.68 C 182.31 504.29 199.27 507.24 215.98 507.53 C 231.29 507.33 246.87 505.43 261.02 499.27 C 274.84 493.58 286.98 483.70 294.98 471.04 C 304.61 456.23 308.60 438.45 309.50 421.00 C 309.49 347.33 309.50 273.67 309.49 200.00 C 288.83 200.00 268.17 200.00 247.51 200.00 Z" />
</g>
</svg>
