<?xml version="1.0" encoding="UTF-8" ?>
<!DOCTYPE svg PUBLIC "-//W3C//DTD SVG 1.1//EN" "http://www.w3.org/Graphics/SVG/1.1/DTD/svg11.dtd">
<svg width="332pt" height="334pt" viewBox="0 0 332 334" version="1.1" xmlns="http://www.w3.org/2000/svg">
<g id="#f0db4fff">
<path fill="#f0db4f" opacity="1.00" d=" M 159.80 0.00 L 171.39 0.00 C 191.95 0.96 212.47 5.18 231.36 13.47 C 262.06 26.66 288.51 49.41 306.26 77.70 C 322.18 102.73 330.88 132.10 332.00 161.69 L 332.00 172.40 C 331.12 192.99 326.84 213.49 318.71 232.47 C 305.65 263.49 282.91 290.36 254.42 308.30 C 229.72 324.23 200.62 332.84 171.31 334.00 L 160.61 334.00 C 141.21 333.09 121.87 329.31 103.88 321.90 C 77.17 311.04 53.39 293.09 35.65 270.37 C 13.85 242.86 1.53 208.31 0.00 173.31 L 0.00 161.61 C 1.21 130.35 10.89 99.37 28.50 73.45 C 46.31 46.94 71.86 25.70 101.27 13.20 C 119.74 5.17 139.74 1.10 159.80 0.00 M 204.58 95.81 C 194.18 98.32 184.57 104.77 179.22 114.16 C 173.49 123.98 172.97 136.11 175.75 146.94 C 178.26 156.78 185.21 164.92 193.58 170.41 C 204.96 178.18 218.50 181.74 230.44 188.47 C 235.06 191.05 239.34 195.39 239.47 201.01 C 240.13 206.67 236.49 212.07 231.46 214.42 C 224.32 217.86 215.84 217.73 208.37 215.44 C 200.10 212.81 193.99 206.08 189.55 198.89 C 181.33 203.50 173.24 208.32 165.07 213.00 C 169.56 221.68 176.25 229.26 184.60 234.39 C 197.70 242.59 213.81 244.80 228.98 243.10 C 241.27 241.65 253.81 236.59 261.56 226.58 C 269.58 216.42 271.01 202.45 268.27 190.13 C 266.53 182.03 261.80 174.79 255.52 169.47 C 245.48 160.92 232.99 156.16 221.04 150.97 C 216.40 148.84 211.54 146.82 207.75 143.29 C 202.33 138.36 202.20 128.63 207.88 123.84 C 212.43 119.86 219.14 119.69 224.70 121.29 C 230.56 123.04 234.46 128.14 237.42 133.19 C 245.21 128.18 253.01 123.20 260.79 118.17 C 255.67 109.33 248.27 101.40 238.57 97.69 C 227.80 93.61 215.74 93.25 204.58 95.81 M 118.79 95.89 C 118.75 130.29 118.81 164.69 118.76 199.09 C 118.69 204.49 117.74 210.70 113.13 214.17 C 108.91 217.14 103.32 217.17 98.42 216.39 C 90.94 214.68 86.90 207.51 83.36 201.37 C 75.29 206.40 67.11 211.25 58.98 216.18 C 63.29 225.48 70.48 233.56 79.67 238.23 C 89.85 243.44 101.72 244.49 112.94 243.05 C 122.73 241.81 132.50 237.64 138.95 229.97 C 146.23 221.44 148.80 209.91 148.78 198.93 C 148.78 164.58 148.80 130.24 148.77 95.89 C 138.77 95.88 128.78 95.87 118.79 95.89 Z" />
</g>
<g id="#323330ff">
</g>
</svg>
