<?xml version="1.0" encoding="UTF-8" ?>
<!DOCTYPE svg PUBLIC "-//W3C//DTD SVG 1.1//EN" "http://www.w3.org/Graphics/SVG/1.1/DTD/svg11.dtd">
<svg width="1067pt" height="1067pt" viewBox="0 0 1067 1067" version="1.1" xmlns="http://www.w3.org/2000/svg">
<g id="#000000ff">
<path fill="#000000" opacity="1.00" d=" M 517.49 0.00 L 549.42 0.00 C 592.95 1.51 636.36 7.88 678.29 19.76 C 751.47 40.30 820.06 76.88 878.01 126.06 C 930.12 170.11 973.67 224.27 1005.50 284.62 C 1030.83 332.56 1048.74 384.41 1058.35 437.77 C 1063.30 464.12 1065.50 490.87 1067.00 517.60 L 1067.00 549.34 C 1065.74 568.97 1064.57 588.64 1061.70 608.11 C 1050.86 686.03 1022.36 761.42 978.91 827.00 C 939.23 887.21 887.20 939.24 826.99 978.92 C 760.00 1023.30 682.78 1052.08 603.09 1062.38 C 585.25 1064.84 567.26 1065.81 549.31 1067.00 L 517.58 1067.00 C 495.60 1065.67 473.58 1064.19 451.82 1060.70 C 395.92 1052.16 341.42 1034.59 291.07 1008.85 C 237.14 981.35 187.98 944.54 146.33 900.63 C 97.05 848.76 58.29 786.91 33.33 719.84 C 12.92 665.37 1.91 607.51 0.00 549.40 L 0.00 517.51 C 1.82 462.02 11.88 406.74 30.59 354.44 C 56.25 282.08 97.96 215.52 151.62 160.63 C 199.78 111.27 257.57 71.30 320.84 43.85 C 382.79 16.80 449.97 2.13 517.49 0.00 M 534.49 213.71 C 534.29 216.15 534.13 218.59 533.82 221.02 C 532.66 233.05 523.98 242.71 514.79 249.78 C 476.11 282.77 446.23 325.47 425.95 371.94 C 409.27 410.27 399.33 451.39 395.57 492.98 C 393.37 516.30 393.18 539.88 396.29 563.12 C 402.93 615.26 424.83 664.82 456.32 706.68 C 476.23 733.14 499.57 757.15 526.17 776.93 C 529.98 802.23 532.65 827.75 535.11 853.24 C 539.38 853.26 543.65 853.24 547.93 853.25 C 550.98 825.77 555.47 798.45 561.49 771.46 C 586.54 753.53 607.75 730.60 625.65 705.63 C 646.36 676.45 661.88 643.58 671.01 608.98 C 683.20 563.12 683.99 514.63 675.87 468.00 C 667.03 428.73 653.46 390.37 634.01 355.07 C 617.75 325.25 596.87 298.12 573.12 273.89 C 566.25 266.42 558.33 259.69 553.23 250.78 C 545.61 239.18 539.87 226.47 534.49 213.71 Z" />
<path fill="#000000" opacity="1.00" d=" M 540.35 466.28 C 540.65 466.21 541.25 466.07 541.56 466.00 C 543.75 477.51 544.07 489.26 544.94 500.92 C 547.99 553.59 549.66 606.32 551.42 659.05 C 552.25 689.68 553.57 720.32 553.90 750.96 C 550.05 749.22 547.97 745.35 546.21 741.75 C 542.23 733.23 539.79 724.09 537.68 714.95 C 535.51 704.78 533.57 694.44 533.74 684.00 C 533.84 631.34 534.25 578.68 535.79 526.04 C 536.34 509.99 536.85 493.93 538.32 477.93 C 538.78 474.02 539.01 470.01 540.35 466.28 Z" />
</g>
</svg>
