<?xml version="1.0" encoding="UTF-8" ?>
<!DOCTYPE svg PUBLIC "-//W3C//DTD SVG 1.1//EN" "http://www.w3.org/Graphics/SVG/1.1/DTD/svg11.dtd">
<svg width="1067pt" height="1067pt" viewBox="0 0 1067 1067" version="1.1" xmlns="http://www.w3.org/2000/svg">
<g id="#00000080">
<path fill="#000000" opacity="0.50" d=" M 500.79 0.00 L 509.50 0.00 C 506.23 0.05 503.04 0.03 499.80 0.10 L 500.79 0.00 Z" />
<path fill="#000000" opacity="0.50" d=" M 486.60 1.72 C 488.28 1.51 491.65 1.10 493.33 0.89 C 491.65 1.10 488.28 1.51 486.60 1.72 Z" />
<path fill="#000000" opacity="0.50" d=" M 584.85 2.04 C 586.36 1.44 588.04 1.75 589.16 2.96 C 587.64 3.56 585.96 3.25 584.85 2.04 Z" />
<path fill="#000000" opacity="0.50" d=" M 467.83 3.78 C 469.01 2.64 470.70 2.43 472.19 3.10 C 471.00 4.26 469.30 4.48 467.83 3.78 Z" />
<path fill="#000000" opacity="0.50" d=" M 593.80 3.08 C 595.27 2.42 596.96 2.62 598.16 3.75 C 596.68 4.46 594.97 4.25 593.80 3.08 Z" />
<path fill="#000000" opacity="0.50" d=" M 1061.18 456.83 C 1062.31 458.00 1062.53 459.69 1061.88 461.19 C 1060.70 460.00 1060.48 458.30 1061.18 456.83 Z" />
<path fill="#000000" opacity="0.50" d=" M 1064.16 482.83 C 1065.34 484.36 1065.48 486.37 1064.78 488.15 C 1063.58 486.60 1063.44 484.59 1064.16 482.83 Z" />
<path fill="#000000" opacity="0.50" d=" M 0.00 555.47 C 0.05 558.74 0.02 561.94 0.08 565.25 L 0.00 564.30 L 0.00 555.47 Z" />
<path fill="#000000" opacity="0.50" d=" M 2.15 583.84 C 3.34 585.36 3.51 587.38 2.76 589.15 C 1.62 587.59 1.44 585.60 2.15 583.84 Z" />
<path fill="#000000" opacity="0.50" d=" M 463.85 1062.25 C 465.31 1061.52 467.02 1061.72 468.22 1062.88 C 466.74 1063.55 465.05 1063.35 463.85 1062.25 Z" />
<path fill="#000000" opacity="0.50" d=" M 481.83 1064.17 C 483.59 1063.43 485.58 1063.59 487.15 1064.74 C 485.38 1065.48 483.37 1065.34 481.83 1064.17 Z" />
</g>
<g id="#000000fe">
<path fill="#000000" opacity="1.00" d=" M 509.50 0.00 L 556.50 0.00 C 559.69 0.05 562.98 0.03 566.20 0.09 C 567.82 0.28 571.06 0.66 572.69 0.85 C 574.36 1.12 577.71 1.67 579.39 1.94 C 581.20 1.97 583.02 2.01 584.85 2.04 C 585.96 3.25 587.64 3.56 589.16 2.96 C 590.70 3.00 592.25 3.04 593.80 3.08 C 594.97 4.25 596.68 4.46 598.16 3.75 C 674.92 12.42 749.45 39.27 815.01 80.00 C 899.01 132.36 967.90 208.39 1011.99 297.01 C 1036.44 347.34 1053.80 401.28 1061.18 456.83 C 1060.48 458.30 1060.70 460.00 1061.88 461.19 C 1062.33 465.07 1062.75 468.95 1063.20 472.85 C 1062.46 474.62 1062.63 476.63 1063.84 478.17 C 1063.93 479.72 1064.04 481.27 1064.16 482.83 C 1063.44 484.59 1063.58 486.60 1064.78 488.15 C 1064.92 490.00 1065.07 491.86 1065.24 493.73 C 1065.40 496.52 1065.71 499.40 1066.02 502.23 C 1066.23 504.99 1066.74 507.84 1067.00 510.65 L 1067.00 557.49 C 1066.55 560.23 1066.23 563.06 1065.82 565.84 C 1064.00 568.45 1063.83 570.91 1065.31 573.20 C 1065.13 575.01 1064.97 576.82 1064.82 578.63 C 1064.65 580.32 1064.31 583.70 1064.14 585.39 C 1064.02 586.86 1063.92 588.34 1063.83 589.82 C 1062.64 591.36 1062.48 593.37 1063.27 595.14 C 1055.94 660.69 1035.72 724.68 1005.00 783.01 C 967.65 853.00 914.59 914.61 850.92 961.91 C 776.61 1017.55 687.35 1052.74 595.15 1063.22 C 593.37 1062.46 591.36 1062.64 589.82 1063.84 C 588.68 1063.92 587.54 1064.02 586.41 1064.13 C 584.72 1064.32 581.34 1064.71 579.65 1064.90 C 577.84 1064.94 576.04 1064.99 574.24 1065.06 C 571.24 1063.77 568.77 1064.07 566.81 1065.96 C 563.62 1066.21 560.56 1066.74 557.40 1067.00 L 509.55 1067.00 C 506.71 1066.62 503.97 1066.36 501.17 1066.05 C 498.33 1065.65 495.59 1065.47 492.78 1065.20 C 490.90 1065.02 489.02 1064.87 487.15 1064.74 C 485.58 1063.59 483.59 1063.43 481.83 1064.17 C 480.26 1064.05 478.70 1063.94 477.15 1063.85 C 475.62 1062.64 473.62 1062.43 471.83 1063.15 C 470.62 1063.04 469.42 1062.96 468.22 1062.88 C 467.02 1061.72 465.31 1061.52 463.85 1062.25 C 381.80 1051.94 302.27 1021.67 233.97 975.04 C 105.53 888.49 17.19 743.78 2.76 589.15 C 3.51 587.38 3.34 585.36 2.15 583.84 C 2.09 582.30 2.02 580.77 1.95 579.25 C 3.14 576.19 2.77 573.73 0.81 571.87 C 0.63 570.22 0.26 566.90 0.08 565.25 C 0.02 561.94 0.05 558.74 0.00 555.47 L 0.00 509.50 C 0.05 506.23 0.03 503.04 0.09 499.80 C 0.29 498.18 0.67 494.93 0.86 493.30 C 1.12 491.62 1.63 488.27 1.89 486.59 C 1.98 485.11 2.07 483.63 2.16 482.16 C 3.35 480.61 3.51 478.60 2.75 476.84 C 11.25 393.69 39.90 312.62 85.67 242.67 C 113.31 199.80 147.70 161.55 186.14 128.13 C 264.99 60.09 364.30 15.80 467.83 3.78 C 469.30 4.48 471.00 4.26 472.19 3.10 C 476.98 2.51 481.77 2.06 486.60 1.72 C 488.28 1.51 491.65 1.10 493.33 0.89 C 494.95 0.69 498.18 0.30 499.80 0.10 C 503.04 0.03 506.23 0.05 509.50 0.00 M 546.02 431.91 C 545.85 459.78 546.24 487.65 545.82 515.53 C 540.25 513.01 534.89 510.07 529.23 507.78 C 527.05 506.76 524.67 507.59 522.65 508.54 C 509.58 514.77 497.74 523.17 485.03 530.04 C 481.04 532.32 476.82 534.34 473.26 537.28 C 469.61 540.79 471.63 546.55 470.91 550.97 C 471.08 567.51 470.32 584.09 471.50 600.61 C 472.24 603.55 475.16 605.04 477.50 606.58 C 490.95 614.47 504.65 621.93 517.93 630.11 C 521.32 631.77 525.25 635.00 529.25 633.25 C 542.29 627.02 554.34 618.95 566.99 611.99 C 571.81 609.23 576.86 606.73 581.13 603.14 C 584.05 599.13 582.41 593.57 583.08 589.02 C 582.92 547.34 583.05 505.65 583.03 463.97 C 582.21 459.19 584.47 451.82 578.92 449.13 C 568.41 442.58 557.65 436.28 546.02 431.91 M 825.68 504.69 C 818.81 506.86 812.94 511.18 806.79 514.81 C 795.70 521.75 783.42 526.85 773.31 535.32 C 770.91 537.42 771.59 541.28 771.15 544.00 C 770.72 560.52 770.56 577.07 771.49 593.58 C 771.99 596.71 771.52 600.58 774.23 602.77 C 781.78 608.51 790.31 613.95 800.01 614.82 C 806.31 614.43 812.58 609.63 812.87 602.99 C 813.51 583.72 812.77 564.42 812.97 545.14 L 813.00 543.83 C 810.20 544.00 807.41 544.19 804.63 544.42 L 805.17 544.47 C 804.79 561.98 805.36 579.49 804.86 597.00 C 805.49 600.47 803.76 605.20 799.92 605.91 C 791.96 605.91 785.67 600.54 779.05 596.93 C 778.94 578.01 778.93 559.09 779.06 540.18 C 795.85 531.07 811.84 520.52 828.95 511.98 C 844.78 521.64 860.87 530.87 876.96 540.08 C 877.04 559.25 877.13 578.43 876.82 597.60 C 860.30 605.76 845.32 616.78 828.62 624.48 C 823.28 624.29 819.22 619.58 814.66 617.16 C 812.01 618.72 809.34 620.26 806.69 621.81 C 812.87 625.39 818.34 630.69 825.36 632.62 C 833.72 633.90 840.18 627.64 847.05 624.08 C 858.08 616.92 870.13 611.43 880.87 603.83 C 885.75 601.94 885.03 596.05 885.11 592.03 C 885.02 575.35 885.34 558.66 884.86 541.99 C 885.70 538.08 883.69 534.43 880.45 532.55 C 867.86 524.64 854.52 518.01 841.99 510.00 C 836.93 507.30 831.79 503.20 825.68 504.69 M 216.90 508.79 C 202.33 517.74 187.02 525.45 172.57 534.59 C 168.09 537.34 169.11 543.62 168.87 547.98 C 169.24 572.34 168.24 596.73 169.86 621.06 C 180.87 615.06 192.44 609.92 202.69 602.63 C 205.10 600.92 205.81 597.81 205.98 595.04 C 206.37 583.15 205.44 571.24 206.43 559.39 C 210.86 554.05 217.45 550.07 224.13 548.24 C 231.80 548.30 237.66 554.50 243.91 558.16 C 244.03 571.31 243.45 584.49 244.53 597.61 C 244.77 598.78 244.91 600.25 246.00 601.00 C 256.65 608.90 268.45 615.07 280.50 620.54 C 283.05 611.95 281.83 602.81 282.12 594.00 C 281.58 575.82 282.90 557.59 281.41 539.46 C 279.31 533.81 272.73 531.89 268.05 528.89 C 254.41 521.73 241.69 512.91 227.82 506.18 C 224.02 504.29 220.17 507.04 216.90 508.79 M 373.50 506.73 C 365.96 508.99 359.69 514.17 352.80 517.83 C 342.85 524.37 331.64 528.86 322.28 536.31 C 318.78 539.41 320.81 544.95 319.96 548.97 C 319.87 563.97 319.65 578.99 320.15 594.00 C 319.40 597.83 321.27 601.54 324.36 603.61 C 332.20 609.02 340.88 613.04 349.03 617.96 C 357.37 622.62 365.11 628.58 374.26 631.61 C 378.58 632.20 382.49 630.20 386.03 628.07 C 398.03 621.07 409.92 613.87 422.07 607.12 C 425.53 604.53 431.03 602.81 431.80 597.99 C 432.37 579.66 432.21 561.31 431.87 542.99 C 433.51 537.14 428.20 534.08 424.03 531.95 C 411.38 525.07 399.01 517.71 386.66 510.32 C 382.54 508.36 378.30 505.22 373.50 506.73 M 670.19 509.17 C 659.76 515.07 649.49 521.24 638.98 526.99 C 633.15 530.33 627.01 533.40 622.23 538.20 C 619.85 542.74 621.31 548.10 620.84 552.99 C 621.13 568.11 620.26 583.29 621.64 598.38 C 622.16 602.27 625.87 604.31 628.88 606.20 C 641.48 613.65 654.36 620.62 667.00 628.02 C 671.39 630.04 676.06 633.58 681.10 630.99 C 691.07 626.33 700.79 621.01 709.90 614.82 C 712.45 613.55 710.14 610.53 708.43 609.60 C 692.47 598.90 674.32 591.64 659.04 579.95 C 656.47 573.22 658.68 565.26 657.91 558.19 C 664.37 554.74 670.38 550.39 677.23 547.72 C 684.32 549.95 690.17 555.09 696.84 558.33 C 696.95 564.78 697.15 571.21 697.30 577.67 C 707.23 573.73 716.28 567.94 725.29 562.27 C 728.06 559.78 732.46 558.17 733.49 554.21 C 733.57 549.73 733.46 545.23 733.39 540.77 C 732.10 535.12 725.35 532.94 721.01 529.97 C 707.08 522.77 694.28 513.53 680.07 506.87 C 676.64 505.01 673.21 507.76 670.19 509.17 M 901.56 515.61 C 899.41 519.37 900.51 524.46 903.78 527.20 C 908.86 531.11 917.86 527.79 917.96 521.00 C 919.33 516.48 915.63 513.73 913.07 510.94 C 909.04 514.74 906.04 519.56 905.54 525.24 C 907.16 523.30 908.72 521.33 910.26 519.33 C 911.54 521.70 913.07 524.12 914.62 526.38 C 911.33 526.78 907.87 527.04 904.64 527.39 C 903.23 524.25 901.55 520.99 902.29 517.37 C 903.68 513.58 907.94 512.33 911.07 510.35 C 907.79 511.40 903.05 511.83 901.56 515.61 M 823.68 548.68 C 817.54 554.49 818.48 565.85 826.39 569.54 C 836.36 573.60 847.54 573.20 857.67 576.90 C 856.45 579.71 857.16 584.35 853.69 585.66 C 846.85 588.69 838.15 589.14 831.54 585.41 C 827.19 581.21 824.48 574.48 816.87 576.28 C 818.37 581.46 819.35 587.47 824.32 590.62 C 831.99 596.70 842.57 595.19 851.59 594.54 C 859.47 593.78 866.53 587.07 866.58 578.98 C 866.03 574.14 862.93 569.32 858.15 567.81 C 848.88 564.92 839.02 564.41 829.86 561.10 C 827.90 560.07 828.07 555.58 830.27 554.28 C 835.31 550.30 842.39 550.37 848.35 551.65 C 854.30 555.08 857.08 563.73 865.70 561.54 C 863.56 553.90 859.27 545.66 850.68 544.35 C 841.65 543.52 831.13 542.45 823.68 548.68 M 667.46 563.43 C 666.50 567.41 667.16 571.59 666.80 575.66 C 669.67 577.31 672.49 579.03 675.43 580.61 C 678.59 582.77 681.70 578.69 684.55 577.65 C 690.20 575.16 687.41 567.82 688.37 563.13 C 684.49 561.13 680.73 558.88 676.95 556.75 C 673.76 558.92 670.19 560.65 667.46 563.43 Z" />
</g>
<g id="#00000087">
<path fill="#000000" opacity="0.53" d=" M 556.50 0.00 L 565.22 0.00 L 566.20 0.09 C 562.98 0.03 559.69 0.05 556.50 0.00 Z" />
<path fill="#000000" opacity="0.53" d=" M 1065.24 493.73 C 1065.50 496.56 1065.65 499.35 1066.02 502.23 C 1065.71 499.40 1065.40 496.52 1065.24 493.73 Z" />
<path fill="#000000" opacity="0.53" d=" M 0.00 500.78 L 0.09 499.80 C 0.03 503.04 0.05 506.23 0.00 509.50 L 0.00 500.78 Z" />
<path fill="#000000" opacity="0.53" d=" M 804.63 544.42 C 807.41 544.19 810.20 544.00 813.00 543.83 L 812.97 545.14 C 810.35 544.90 807.75 544.68 805.17 544.47 L 804.63 544.42 Z" />
<path fill="#000000" opacity="0.53" d=" M 492.78 1065.20 C 495.59 1065.47 498.33 1065.65 501.17 1066.05 C 498.38 1065.77 495.53 1065.38 492.78 1065.20 Z" />
</g>
<g id="#0000008a">
<path fill="#000000" opacity="0.54" d=" M 572.69 0.85 C 574.36 1.12 577.71 1.67 579.39 1.94 C 577.71 1.67 574.36 1.12 572.69 0.85 Z" />
<path fill="#000000" opacity="0.54" d=" M 0.86 493.30 C 1.12 491.62 1.63 488.27 1.89 486.59 C 1.63 488.27 1.12 491.62 0.86 493.30 Z" />
<path fill="#000000" opacity="0.54" d=" M 1064.14 585.39 C 1064.31 583.70 1064.65 580.32 1064.82 578.63 C 1064.65 580.32 1064.31 583.70 1064.14 585.39 Z" />
</g>
<g id="#0000008c">
<path fill="#000000" opacity="0.55" d=" M 1063.20 472.85 C 1064.35 474.39 1064.53 476.39 1063.84 478.17 C 1062.63 476.63 1062.46 474.62 1063.20 472.85 Z" />
<path fill="#000000" opacity="0.55" d=" M 2.16 482.16 C 1.44 480.38 1.62 478.39 2.75 476.84 C 3.51 478.60 3.35 480.61 2.16 482.16 Z" />
<path fill="#000000" opacity="0.55" d=" M 471.83 1063.15 C 473.62 1062.43 475.62 1062.64 477.15 1063.85 C 475.35 1064.53 473.35 1064.33 471.83 1063.15 Z" />
</g>
<g id="#000000f8">
<path fill="#000000" opacity="0.97" d=" M 913.18 512.84 C 917.10 515.89 916.39 520.73 915.84 525.11 C 912.22 521.97 911.65 517.19 913.18 512.84 Z" />
</g>
<g id="#00000089">
<path fill="#000000" opacity="0.54" d=" M 733.39 540.77 C 733.46 545.23 733.57 549.73 733.49 554.21 C 733.57 549.73 733.45 545.23 733.39 540.77 Z" />
</g>
<g id="#000000fc">
<path fill="#000000" opacity="1.00" d=" M 526.52 548.28 C 533.16 551.69 539.62 555.43 546.14 559.06 C 545.95 566.28 546.47 573.56 545.75 580.77 C 542.27 584.49 537.45 586.65 533.11 589.21 C 530.55 590.33 527.66 592.82 524.74 591.26 C 519.03 588.36 513.73 584.72 508.14 581.61 C 508.11 574.09 508.08 566.59 507.97 559.09 C 514.19 555.55 520.42 552.02 526.52 548.28 Z" />
</g>
<g id="#00000088">
<path fill="#000000" opacity="0.53" d=" M 1065.31 573.20 C 1063.83 570.91 1064.00 568.45 1065.82 565.84 C 1067.18 568.10 1067.00 570.55 1065.31 573.20 Z" />
</g>
<g id="#00000076">
<path fill="#000000" opacity="0.46" d=" M 0.81 571.87 C 2.77 573.73 3.14 576.19 1.95 579.25 C 0.10 577.28 -0.28 574.82 0.81 571.87 Z" />
</g>
<g id="#00000073">
<path fill="#000000" opacity="0.45" d=" M 1063.27 595.14 C 1062.48 593.37 1062.64 591.36 1063.83 589.82 C 1064.54 591.58 1064.38 593.57 1063.27 595.14 Z" />
<path fill="#000000" opacity="0.45" d=" M 589.82 1063.84 C 591.36 1062.64 593.37 1062.46 595.15 1063.22 C 593.59 1064.36 591.59 1064.53 589.82 1063.84 Z" />
</g>
<g id="#00000075">
<path fill="#000000" opacity="0.46" d=" M 579.65 1064.90 C 581.34 1064.71 584.72 1064.32 586.41 1064.13 C 584.72 1064.32 581.34 1064.71 579.65 1064.90 Z" />
</g>
<g id="#0000007f">
<path fill="#000000" opacity="0.50" d=" M 566.81 1065.96 C 568.77 1064.07 571.24 1063.77 574.24 1065.06 C 572.23 1066.85 569.75 1067.15 566.81 1065.96 Z" />
</g>
</svg>
