<?xml version="1.0" encoding="UTF-8" ?>
<!DOCTYPE svg PUBLIC "-//W3C//DTD SVG 1.1//EN" "http://www.w3.org/Graphics/SVG/1.1/DTD/svg11.dtd">
<svg width="512pt" height="512pt" viewBox="0 0 512 512" version="1.1" xmlns="http://www.w3.org/2000/svg">
<g id="#6cc24aff">
<path fill="#6cc24a" opacity="1.00" d=" M 251.51 0.00 L 260.42 0.00 C 299.09 0.81 337.62 10.15 372.06 27.82 C 426.99 55.63 471.18 103.96 493.81 161.23 C 505.56 190.45 511.53 221.87 512.00 253.33 L 512.00 260.42 C 511.15 303.08 499.75 345.54 478.51 382.58 C 459.80 415.44 433.71 444.07 402.72 465.74 C 361.35 494.96 311.09 511.05 260.49 512.00 L 253.40 512.00 C 205.52 511.48 157.82 497.41 117.62 471.35 C 62.44 436.09 21.73 378.91 6.91 315.08 C 2.62 297.21 0.52 278.86 0.00 260.50 L 0.00 251.55 C 0.90 205.02 14.48 158.74 39.49 119.44 C 61.84 83.99 93.03 54.18 129.46 33.47 C 166.47 12.24 208.89 0.87 251.51 0.00 M 262.11 207.33 C 261.77 220.68 262.27 234.04 261.83 247.39 C 258.84 246.02 256.12 244.07 252.98 243.06 C 245.53 246.13 238.95 251.05 231.80 254.76 C 229.45 256.36 225.44 257.40 225.83 260.97 C 225.71 268.97 225.85 276.97 225.77 284.96 C 225.89 286.85 225.50 289.33 227.53 290.34 C 234.37 294.58 241.49 298.37 248.37 302.54 C 250.35 303.47 252.60 305.55 254.79 303.98 C 262.54 299.72 270.15 295.16 277.81 290.73 C 279.71 289.90 280.22 287.89 280.09 285.98 C 280.13 265.67 280.05 245.36 280.12 225.04 C 280.09 222.38 280.28 219.68 279.76 217.06 C 278.56 215.27 276.35 214.53 274.60 213.41 C 270.45 211.36 266.73 208.27 262.11 207.33 M 103.99 244.14 C 97.10 248.25 90.05 252.09 83.15 256.20 C 79.82 257.78 81.20 262.06 80.89 265.00 C 81.32 276.15 80.25 287.39 81.58 298.49 C 86.36 296.04 90.98 293.30 95.66 290.67 C 96.96 289.76 98.97 289.02 98.88 287.10 C 99.32 281.38 98.70 275.63 99.09 269.90 C 99.04 268.78 99.47 267.92 100.40 267.32 C 102.71 265.62 105.23 264.03 108.02 263.26 C 111.27 264.13 114.30 265.97 116.78 268.22 C 118.01 274.84 116.40 281.70 117.58 288.33 C 122.59 292.26 128.47 295.09 134.11 298.04 C 135.82 296.91 135.13 294.66 135.32 292.95 C 135.16 281.94 135.35 270.93 135.15 259.93 C 135.54 257.27 132.87 256.13 131.02 255.01 C 123.94 251.10 117.04 246.88 109.93 243.01 C 107.94 241.47 105.81 243.20 103.99 244.14 M 386.44 247.52 C 381.68 250.43 376.63 252.89 372.03 256.03 C 369.72 257.55 370.17 260.60 370.06 262.97 C 370.19 270.68 369.93 278.41 370.16 286.12 C 370.02 289.40 373.41 290.81 375.77 292.24 C 379.19 294.16 383.47 296.28 387.34 294.29 C 389.99 292.94 390.53 289.73 390.51 287.04 C 390.54 278.50 390.48 269.95 390.51 261.41 C 389.08 261.36 387.66 261.32 386.25 261.27 C 386.02 270.21 386.46 279.17 386.05 288.10 C 386.12 290.10 383.86 291.54 382.06 290.72 C 379.22 289.75 376.75 287.97 374.15 286.53 C 374.06 277.48 374.06 268.43 374.15 259.38 C 382.05 254.94 389.82 250.27 397.78 245.91 C 405.46 250.44 413.15 254.95 420.92 259.32 C 421.04 268.43 421.07 277.54 420.91 286.65 C 413.02 291.01 405.34 295.73 397.45 300.09 C 395.35 298.79 393.25 297.51 391.14 296.24 C 389.68 296.99 388.23 297.75 386.79 298.53 C 391.21 300.53 395.82 306.13 400.94 302.96 C 407.52 299.23 414.01 295.36 420.61 291.67 C 422.74 290.44 425.45 288.91 425.22 286.02 C 425.46 278.34 425.19 270.65 425.33 262.96 C 425.25 260.48 425.64 257.28 423.11 255.84 C 417.19 252.02 410.90 248.82 404.89 245.14 C 402.39 243.87 399.99 241.69 397.03 241.87 C 393.20 243.11 389.96 245.63 386.44 247.52 M 178.32 243.28 C 172.09 246.67 166.04 250.41 159.82 253.83 C 157.77 255.06 155.52 256.08 153.83 257.82 C 152.90 262.15 153.58 266.64 153.41 271.04 C 153.60 276.78 152.96 282.58 153.72 288.28 C 155.29 290.14 157.59 291.12 159.63 292.37 C 166.03 295.90 172.23 299.80 178.66 303.28 C 180.55 304.64 182.62 303.20 184.33 302.29 C 190.64 298.60 196.95 294.90 203.32 291.31 C 205.29 290.10 208.11 288.87 207.68 286.06 C 207.73 277.37 207.77 268.67 207.66 259.98 C 208.00 257.45 205.50 256.34 203.72 255.23 C 197.36 251.63 191.01 247.99 184.69 244.30 C 182.76 243.23 180.43 241.63 178.32 243.28 M 323.35 243.33 C 316.26 247.17 309.41 251.44 302.36 255.35 C 300.69 256.49 298.01 257.42 298.17 259.87 C 297.92 267.90 298.19 275.94 298.05 283.98 C 298.18 286.08 297.63 288.92 299.97 290.03 C 306.65 294.13 313.62 297.76 320.35 301.79 C 322.43 302.88 324.85 304.82 327.17 303.18 C 331.88 300.59 336.70 298.14 341.19 295.19 C 342.48 294.63 341.43 292.96 340.52 292.63 C 332.63 287.73 324.25 283.61 316.49 278.51 C 315.62 275.16 316.22 271.56 316.17 268.12 C 319.12 266.34 322.10 264.62 325.09 262.91 C 328.13 264.57 331.13 266.32 334.13 268.07 C 334.30 271.24 333.72 274.56 334.88 277.59 C 339.48 275.92 343.37 272.85 347.67 270.55 C 349.34 269.33 352.07 268.51 352.12 266.05 C 352.34 263.43 352.44 260.74 351.84 258.16 C 350.59 256.67 348.80 255.80 347.16 254.80 C 341.01 251.35 334.94 247.75 328.84 244.20 C 327.16 243.35 325.15 241.94 323.35 243.33 M 434.58 245.71 C 431.80 246.99 431.42 251.30 433.95 253.04 C 436.35 255.05 440.89 253.38 440.76 250.04 C 441.49 246.69 437.46 244.07 434.58 245.71 M 397.18 262.13 C 392.93 263.87 391.92 270.62 395.95 273.12 C 400.65 275.74 406.48 274.47 411.22 277.01 C 411.91 278.76 411.05 280.94 409.13 281.38 C 406.09 282.25 402.73 282.20 399.73 281.27 C 397.76 280.72 397.32 278.50 396.41 276.97 C 395.05 276.93 393.69 276.92 392.34 276.92 C 392.87 279.53 393.35 282.59 395.96 283.99 C 400.69 286.57 406.75 286.62 411.71 284.67 C 415.96 283.15 417.55 276.92 414.24 273.76 C 409.50 270.25 402.87 272.01 397.94 268.96 C 397.34 264.52 403.07 264.61 406.06 264.94 C 408.88 264.83 410.26 267.40 411.48 269.49 C 412.82 269.47 414.16 269.45 415.51 269.42 C 414.83 266.61 413.92 263.33 410.96 262.12 C 406.65 260.35 401.47 260.26 397.18 262.13 M 320.02 270.25 C 320.00 272.26 319.98 274.27 319.97 276.28 C 321.71 277.32 323.45 278.34 325.19 279.38 C 326.93 278.35 328.67 277.33 330.41 276.30 C 330.40 274.28 330.40 272.26 330.39 270.24 C 328.65 269.24 326.90 268.24 325.16 267.24 C 323.45 268.24 321.74 269.25 320.02 270.25 Z" />
<path fill="#6cc24a" opacity="1.00" d=" M 433.91 252.03 C 431.28 249.45 434.46 244.61 438.12 245.74 C 435.42 247.16 434.35 249.44 434.90 252.59 C 435.47 251.73 436.60 250.01 437.17 249.15 C 437.21 249.74 437.28 250.94 437.32 251.54 L 439.55 252.03 C 437.91 252.98 435.28 253.93 433.91 252.03 Z" />
<path fill="#6cc24a" opacity="1.00" d=" M 438.35 246.89 C 440.13 246.47 440.82 250.83 439.15 251.44 C 437.79 250.48 437.82 248.30 438.35 246.89 Z" />
<path fill="#6cc24a" opacity="1.00" d=" M 436.40 248.14 C 436.92 248.74 436.92 248.74 436.40 248.14 Z" />
<path fill="#6cc24a" opacity="1.00" d=" M 243.88 268.70 C 246.87 266.89 249.90 265.14 252.94 263.41 C 255.99 265.14 259.02 266.90 262.02 268.71 C 262.00 272.13 262.00 275.55 261.99 278.97 C 258.98 280.71 255.97 282.46 252.95 284.19 C 249.93 282.47 246.92 280.72 243.92 278.97 C 243.91 275.55 243.91 272.12 243.88 268.70 Z" />
</g>
<g id="#ffffffff">
</g>
</svg>
