<?xml version="1.0" encoding="UTF-8" ?>
<!DOCTYPE svg PUBLIC "-//W3C//DTD SVG 1.1//EN" "http://www.w3.org/Graphics/SVG/1.1/DTD/svg11.dtd">
<svg width="1280pt" height="720pt" viewBox="0 0 1280 720" version="1.1" xmlns="http://www.w3.org/2000/svg">
<g id="#001834ff">
<path fill="#001834" opacity="1.00" d=" M 403.18 14.24 C 428.10 13.69 453.04 14.15 477.97 14.00 C 608.65 14.00 739.33 14.00 870.01 14.00 C 904.40 14.03 938.42 29.05 961.60 54.45 C 979.76 74.01 991.36 99.53 994.14 126.08 C 995.12 134.37 994.82 142.72 994.87 151.04 C 994.86 294.70 994.88 438.36 994.86 582.02 C 994.61 617.70 978.15 652.83 950.89 675.85 C 929.38 694.39 901.40 705.19 873.01 705.94 C 718.32 706.07 563.62 705.98 408.92 705.98 C 374.19 705.68 340.01 690.05 317.02 664.03 C 296.25 641.00 284.70 610.03 285.12 579.02 C 285.14 432.35 285.13 285.69 285.13 139.02 C 285.19 110.83 295.09 82.77 312.85 60.88 C 334.63 33.56 368.26 16.10 403.18 14.24 M 447.96 191.77 C 445.43 191.31 444.53 193.98 444.80 196.01 C 444.85 297.01 444.78 398.02 444.83 499.02 C 444.59 500.99 445.76 503.28 448.02 503.10 C 467.02 503.28 486.04 503.17 505.04 503.16 C 507.31 503.38 509.34 501.30 508.99 499.04 C 509.02 467.38 508.98 435.72 509.00 404.06 C 522.98 404.26 536.96 405.21 550.94 404.31 C 570.06 403.37 589.28 400.29 607.08 393.03 C 626.13 385.13 642.83 371.39 653.76 353.85 C 663.95 337.52 667.99 318.04 668.34 298.98 C 668.91 277.22 663.48 254.94 651.14 236.83 C 642.37 223.71 629.91 213.33 616.07 205.92 C 598.49 196.70 578.80 192.10 559.09 190.68 C 540.09 189.38 521.02 190.12 501.99 190.48 C 483.98 190.81 465.97 191.51 447.96 191.77 M 784.39 263.53 C 763.96 264.39 743.11 269.96 726.87 282.82 C 713.83 292.90 704.77 307.85 701.79 324.05 C 698.71 340.69 701.27 358.85 711.17 372.85 C 720.20 386.63 734.35 395.79 748.73 403.20 C 763.71 411.32 780.46 415.43 795.42 423.59 C 800.16 426.25 804.90 429.69 807.13 434.83 C 809.62 440.94 806.19 448.43 800.34 451.19 C 792.18 455.15 782.87 455.47 773.97 455.49 C 749.18 455.04 724.32 448.61 702.85 436.09 C 700.60 435.36 699.81 438.22 700.00 439.90 C 700.01 456.97 699.96 474.04 700.03 491.10 C 699.91 493.74 702.18 495.57 704.37 496.54 C 711.58 499.87 719.17 502.38 726.90 504.18 C 750.01 509.31 774.03 510.86 797.54 507.80 C 816.37 505.14 835.51 498.85 849.69 485.71 C 861.12 475.45 868.76 461.16 871.04 445.98 C 873.16 431.32 871.66 415.70 864.37 402.59 C 858.04 391.60 848.39 382.73 837.36 376.58 C 825.04 369.23 811.98 363.10 798.43 358.42 C 793.94 356.83 789.62 354.82 785.29 352.85 C 777.75 349.14 769.22 345.93 764.30 338.70 C 759.65 332.23 763.13 322.29 770.38 319.43 C 778.82 316.26 788.01 315.87 796.94 316.37 C 813.69 317.38 830.60 320.23 846.12 326.86 C 849.96 328.26 853.62 331.77 857.97 330.17 C 860.12 329.43 859.56 326.76 859.69 325.01 C 859.54 309.08 859.85 293.14 859.54 277.23 C 859.43 273.52 855.53 272.33 852.64 271.37 C 840.30 266.74 827.12 265.17 814.07 264.08 C 804.20 263.32 794.28 263.09 784.39 263.53 Z" />
<path fill="#001834" opacity="1.00" d=" M 509.43 248.68 C 515.95 248.26 522.49 248.61 529.02 248.31 C 539.76 248.27 550.60 247.61 561.20 249.74 C 573.25 252.02 585.66 256.61 593.65 266.38 C 604.51 279.07 605.82 297.32 602.09 313.02 C 598.88 326.94 586.98 337.25 574.08 342.25 C 562.20 346.47 549.62 348.72 537.01 348.73 C 527.78 348.69 518.53 349.03 509.33 348.13 C 509.40 314.98 509.21 281.83 509.43 248.68 Z" />
</g>
<g id="#00aaffff">
</g>
</svg>
