<?xml version="1.0" encoding="UTF-8" ?>
<!DOCTYPE svg PUBLIC "-//W3C//DTD SVG 1.1//EN" "http://www.w3.org/Graphics/SVG/1.1/DTD/svg11.dtd">
<svg width="1334pt" height="750pt" viewBox="0 0 1334 750" version="1.1" xmlns="http://www.w3.org/2000/svg">
<g id="#000000ff">
<path fill="#000000" opacity="1.00" d=" M 424.42 14.59 C 585.27 14.36 746.12 14.58 906.97 14.49 C 944.64 14.62 981.83 32.25 1005.85 61.26 C 1025.90 84.96 1036.78 115.97 1036.46 146.97 C 1036.56 268.30 1036.47 389.64 1036.50 510.97 C 1036.46 541.33 1036.66 571.70 1036.25 602.05 C 1037.57 641.47 1019.26 680.87 988.70 705.71 C 969.79 721.41 946.29 731.45 921.91 734.53 C 910.68 736.08 899.32 735.33 888.03 735.50 C 735.00 735.51 581.98 735.49 428.96 735.51 C 396.48 736.07 364.09 723.63 340.03 701.87 C 316.90 681.16 301.72 651.93 297.87 621.14 C 296.28 608.82 296.85 596.38 296.75 584.00 C 296.76 437.99 296.72 291.98 296.77 145.97 C 296.76 117.50 306.00 89.02 323.33 66.37 C 346.81 34.97 385.16 15.09 424.42 14.59 M 466.91 199.84 C 464.47 199.32 463.15 201.87 463.49 203.97 C 463.54 309.32 463.47 414.68 463.52 520.03 C 463.23 522.02 464.69 524.20 466.87 523.97 C 486.61 524.02 506.36 524.01 526.10 523.98 C 528.20 524.13 530.33 522.27 529.98 520.08 C 530.03 486.96 529.98 453.83 530.01 420.71 C 540.01 421.01 550.01 421.28 560.01 421.52 C 577.83 421.19 595.78 419.93 613.10 415.49 C 627.92 411.84 642.29 405.82 654.57 396.65 C 670.13 385.20 682.75 369.39 689.20 351.08 C 695.32 333.79 697.02 315.11 695.52 296.89 C 693.68 276.99 686.70 257.37 674.30 241.59 C 662.02 225.89 644.76 214.56 626.13 207.80 C 605.98 200.31 584.33 198.14 562.97 197.99 C 530.94 197.93 498.93 199.39 466.91 199.84 M 785.24 280.11 C 768.55 285.38 752.91 295.34 742.84 309.87 C 725.41 334.12 724.97 370.27 744.64 393.41 C 754.80 406.04 769.07 414.40 783.34 421.60 C 796.39 428.12 810.48 432.21 823.61 438.54 C 829.94 441.68 836.83 445.17 840.28 451.69 C 843.72 457.92 840.61 466.29 834.59 469.67 C 828.85 472.77 822.27 473.86 815.84 474.33 C 786.41 475.92 756.55 468.77 731.07 453.94 C 730.11 455.07 729.04 456.29 729.27 457.90 C 729.24 475.61 729.24 493.33 729.26 511.04 C 728.97 513.67 730.98 515.79 733.23 516.81 C 748.19 523.97 764.67 527.10 781.03 529.06 C 802.34 531.43 824.16 531.09 845.08 526.05 C 862.12 521.91 878.65 513.71 890.34 500.36 C 901.62 487.71 907.91 470.89 908.01 453.96 C 908.50 438.83 904.40 423.19 894.68 411.35 C 884.13 397.84 868.50 389.89 853.46 382.44 C 841.55 376.48 828.58 373.10 816.69 367.12 C 809.19 363.48 800.85 360.14 795.99 352.97 C 791.05 346.16 794.70 335.34 802.54 332.55 C 810.87 329.42 819.93 328.96 828.74 329.34 C 846.76 330.32 864.91 333.27 881.59 340.40 C 884.44 341.57 887.01 343.43 890.05 344.13 C 892.16 344.63 895.53 343.76 895.22 341.00 C 895.29 323.99 895.24 306.97 895.25 289.96 C 895.49 287.49 894.02 285.11 891.70 284.25 C 877.90 278.38 862.86 276.46 848.04 275.23 C 827.07 273.86 805.45 273.50 785.24 280.11 Z" />
<path fill="#000000" opacity="1.00" d=" M 530.48 258.92 C 544.74 258.68 559.00 258.27 573.26 258.61 C 587.48 259.66 602.34 263.10 613.57 272.38 C 623.97 281.04 629.02 294.71 629.24 308.01 C 629.34 320.17 627.22 333.32 618.66 342.58 C 607.07 355.97 588.96 360.54 572.08 362.67 C 558.26 363.89 544.31 363.80 530.49 362.74 C 530.50 328.13 530.51 293.53 530.48 258.92 Z" />
</g>
</svg>
