<?xml version="1.0" encoding="UTF-8" ?>
<!DOCTYPE svg PUBLIC "-//W3C//DTD SVG 1.1//EN" "http://www.w3.org/Graphics/SVG/1.1/DTD/svg11.dtd">
<svg width="1004pt" height="1004pt" viewBox="0 0 1004 1004" version="1.1" xmlns="http://www.w3.org/2000/svg">
<g id="#000000ff">
<path fill="#000000" opacity="1.00" d=" M 253.34 66.37 C 324.80 25.37 406.67 2.98 488.98 0.98 C 497.64 1.01 506.29 1.00 514.95 0.99 C 578.75 2.78 642.28 16.54 700.85 41.97 C 765.48 69.80 823.88 111.75 871.34 163.65 C 916.15 212.37 951.14 270.10 973.42 332.44 C 992.17 384.84 1002.17 440.41 1002.64 496.06 C 1003.46 503.05 1002.25 510.04 1002.50 517.05 C 999.81 627.18 959.01 735.92 888.70 820.73 C 838.80 881.36 774.56 930.19 702.54 961.58 C 609.44 1002.42 503.78 1013.79 404.08 993.98 C 344.01 982.22 286.20 959.15 234.36 926.61 C 168.82 885.25 113.03 828.55 72.77 762.33 C 28.54 689.82 3.63 605.79 0.53 520.95 C 0.53 517.04 0.50 513.13 0.00 509.25 L 0.00 495.73 C 0.83 487.82 0.36 479.84 1.10 471.92 C 3.74 426.20 12.86 380.89 27.80 337.62 C 50.06 273.09 85.81 213.26 132.11 163.08 C 167.27 124.92 208.22 92.05 253.34 66.37 M 592.28 196.15 C 558.65 212.11 528.81 235.05 501.77 260.41 C 473.25 234.67 442.49 210.54 407.15 194.88 C 387.06 186.10 364.91 180.08 342.86 183.20 C 326.43 185.64 311.41 195.39 302.15 209.14 C 287.92 229.78 283.31 255.36 282.08 279.95 C 281.84 295.31 281.77 310.69 283.49 325.98 C 285.12 344.73 289.07 363.15 292.56 381.60 C 274.49 386.98 256.73 393.48 239.59 401.35 C 216.55 411.74 194.23 424.36 175.30 441.27 C 160.73 454.16 148.05 470.32 143.47 489.57 C 139.96 503.08 142.88 517.52 149.11 529.79 C 157.69 547.57 172.54 561.31 188.01 573.13 C 204.73 585.57 223.25 595.39 242.24 603.87 C 258.88 611.08 275.83 617.62 293.24 622.73 C 288.02 647.23 283.92 672.04 282.73 697.10 C 281.71 721.12 283.05 745.56 290.15 768.67 C 295.45 785.11 304.31 801.24 318.80 811.27 C 329.74 819.34 343.59 822.29 356.98 822.47 C 379.07 821.70 400.22 813.83 419.73 803.89 C 449.60 788.51 476.34 767.71 500.84 744.88 C 502.13 742.92 503.76 745.18 505.00 746.03 C 513.29 753.48 521.71 760.80 530.48 767.70 C 557.75 789.07 587.60 808.48 621.30 817.80 C 632.95 820.64 645.07 823.04 657.09 821.35 C 671.55 819.76 685.86 813.52 695.64 802.53 C 705.96 791.19 712.64 776.93 716.41 762.15 C 720.67 745.47 722.42 728.19 722.00 711.00 C 722.58 681.12 717.32 651.56 711.43 622.39 C 728.23 617.76 744.41 611.21 760.45 604.46 C 790.82 590.98 820.69 574.00 842.63 548.53 C 852.65 536.52 860.33 521.93 861.90 506.19 C 863.08 489.87 856.35 474.03 846.97 461.01 C 835.70 445.97 821.02 433.82 805.44 423.47 C 776.65 405.02 744.80 391.72 712.16 381.77 C 710.21 381.45 711.27 379.29 711.36 378.05 C 719.40 340.40 724.48 301.50 719.76 263.07 C 717.12 243.36 711.86 223.32 699.84 207.12 C 688.79 191.62 670.12 181.82 651.03 181.98 C 630.57 181.18 610.64 187.66 592.28 196.15 Z" />
<path fill="#000000" opacity="1.00" d=" M 347.59 215.36 C 364.83 213.20 381.80 218.81 397.28 225.90 C 427.34 239.97 453.86 260.56 478.15 282.96 C 476.66 285.45 474.40 287.35 472.55 289.57 C 452.71 310.83 434.64 333.66 417.18 356.90 C 385.84 359.46 354.82 365.34 324.28 372.74 C 317.80 345.01 314.12 316.53 314.49 288.03 C 315.11 268.96 316.88 249.15 325.99 232.01 C 330.24 223.65 338.09 216.74 347.59 215.36 Z" />
<path fill="#000000" opacity="1.00" d=" M 612.49 222.53 C 627.16 216.59 643.40 212.23 659.22 215.73 C 667.77 218.16 674.09 225.24 677.99 232.94 C 683.95 245.03 686.50 258.46 687.83 271.77 C 691.37 305.54 686.17 339.46 679.40 372.50 C 648.84 365.47 617.96 359.31 586.66 356.90 C 569.92 335.27 553.12 313.63 534.54 293.53 C 531.59 289.75 527.42 287.02 524.85 282.96 C 550.99 258.90 579.57 236.54 612.49 222.53 Z" />
<path fill="#000000" opacity="1.00" d=" M 460.87 353.00 C 473.94 336.80 487.18 320.65 501.87 305.87 C 515.99 321.11 529.79 336.67 542.65 353.00 C 527.08 352.75 511.53 351.90 495.96 351.98 C 484.26 352.46 472.57 352.78 460.87 353.00 Z" />
<path fill="#000000" opacity="1.00" d=" M 436.49 387.68 C 457.25 385.63 478.10 385.02 498.93 384.48 C 522.12 384.60 545.28 385.78 568.40 387.59 C 591.45 421.14 612.34 456.26 629.97 492.96 C 631.21 496.16 634.11 499.19 633.80 502.69 C 616.17 540.65 595.16 577.03 571.82 611.77 C 570.45 613.71 569.03 616.05 566.51 616.58 C 561.38 617.69 556.09 617.35 550.89 617.68 C 536.27 618.61 521.63 618.91 507.00 619.52 C 489.24 619.87 471.54 618.23 453.80 617.85 C 447.83 617.36 441.77 617.41 435.89 616.17 C 434.20 614.77 433.18 612.75 431.89 611.02 C 408.66 576.59 387.69 540.55 370.15 502.90 C 369.59 501.52 370.79 500.28 371.20 499.05 C 389.16 461.07 410.27 424.59 433.80 389.79 C 434.49 388.89 435.22 387.74 436.49 387.68 M 492.62 435.62 C 475.34 438.16 459.23 447.68 448.70 461.63 C 442.03 470.57 437.23 481.08 435.72 492.19 C 432.90 510.44 438.28 529.72 449.97 543.99 C 469.11 568.88 507.26 576.54 534.36 560.51 C 559.09 547.45 573.03 517.53 568.07 490.16 C 564.98 474.57 556.63 459.87 544.03 450.03 C 529.76 438.65 510.80 432.79 492.62 435.62 Z" />
<path fill="#000000" opacity="1.00" d=" M 332.78 403.89 C 352.78 399.38 372.94 395.58 393.18 392.34 C 384.99 406.07 376.22 419.50 368.60 433.59 C 363.07 443.24 358.07 453.18 352.57 462.84 C 345.47 443.38 337.65 424.07 332.78 403.89 Z" />
<path fill="#000000" opacity="1.00" d=" M 610.34 392.35 C 630.70 395.54 651.02 399.14 671.04 404.03 C 665.49 423.81 658.45 443.14 651.30 462.38 C 638.38 438.62 625.35 414.88 610.34 392.35 Z" />
<path fill="#000000" opacity="1.00" d=" M 193.44 468.40 C 223.79 440.98 262.41 425.24 300.85 412.82 C 309.67 441.68 319.86 470.14 332.13 497.72 C 333.37 500.10 333.53 502.90 332.62 505.42 C 331.04 510.00 328.86 514.34 327.03 518.82 C 317.58 541.47 309.44 564.66 302.38 588.16 C 301.87 589.16 301.65 591.83 299.90 590.83 C 265.71 579.87 231.78 566.01 203.19 543.86 C 192.43 535.26 181.82 525.39 176.82 512.23 C 173.27 503.54 175.02 493.50 179.61 485.55 C 183.31 479.18 188.19 473.54 193.44 468.40 Z" />
<path fill="#000000" opacity="1.00" d=" M 703.02 412.92 C 719.00 417.64 734.58 423.67 749.86 430.32 C 769.16 438.94 787.78 449.43 804.18 462.85 C 812.29 469.41 819.53 477.18 824.80 486.22 C 830.33 495.50 830.53 507.73 825.13 517.11 C 818.68 528.85 808.65 538.08 798.01 546.01 C 769.70 567.11 736.56 580.49 703.15 591.18 C 694.42 562.80 684.54 534.74 672.46 507.60 C 670.77 504.30 670.29 500.25 671.98 496.86 C 682.56 472.86 691.59 448.19 699.39 423.15 C 700.66 419.78 701.06 415.99 703.02 412.92 Z" />
<path fill="#000000" opacity="1.00" d=" M 610.75 611.66 C 625.11 588.64 639.09 565.32 651.06 540.94 C 658.80 560.28 666.10 579.89 671.24 600.11 C 651.20 604.59 631.03 608.49 610.75 611.66 Z" />
<path fill="#000000" opacity="1.00" d=" M 332.94 599.97 C 338.99 580.50 344.50 560.71 353.35 542.27 C 363.27 561.49 373.86 580.38 385.37 598.70 C 388.00 603.03 390.95 607.16 393.27 611.67 C 373.04 608.43 352.86 604.81 332.94 599.97 Z" />
<path fill="#000000" opacity="1.00" d=" M 324.59 631.53 C 355.17 638.47 386.05 644.74 417.37 647.08 C 436.67 672.13 456.14 697.19 478.36 719.74 C 478.55 720.07 478.94 720.73 479.13 721.06 C 455.24 743.11 429.31 763.52 399.92 777.76 C 383.78 785.19 365.98 791.59 347.96 788.85 C 339.76 787.91 332.91 782.19 328.58 775.43 C 323.14 766.89 320.22 756.98 318.32 747.11 C 311.08 708.70 316.90 669.40 324.59 631.53 Z" />
<path fill="#000000" opacity="1.00" d=" M 586.82 647.10 C 618.17 644.55 649.19 638.66 679.73 631.26 C 685.47 655.43 688.76 680.18 689.52 705.01 C 689.65 722.70 688.90 740.68 683.83 757.75 C 680.99 766.66 677.30 775.88 670.08 782.18 C 664.92 786.88 657.89 789.21 650.95 789.03 C 633.70 789.69 617.26 783.20 601.99 775.84 C 573.69 761.82 548.74 742.00 525.47 720.84 C 547.58 697.71 567.63 672.69 586.82 647.10 Z" />
<path fill="#000000" opacity="1.00" d=" M 461.35 650.99 C 468.24 650.87 475.11 651.74 482.01 651.53 C 502.37 652.87 522.77 651.38 543.13 650.99 C 530.10 667.15 516.89 683.25 502.28 698.03 C 487.90 683.02 474.27 667.27 461.35 650.99 Z" />
</g>
</svg>
