<?xml version="1.0" encoding="UTF-8" ?>
<!DOCTYPE svg PUBLIC "-//W3C//DTD SVG 1.1//EN" "http://www.w3.org/Graphics/SVG/1.1/DTD/svg11.dtd">
<svg width="482pt" height="482pt" viewBox="0 0 482 482" version="1.1" xmlns="http://www.w3.org/2000/svg">
<g id="#01a7f9ff">
<path fill="#01a7f9" opacity="1.00" d=" M 215.61 1.84 C 258.38 -2.68 302.33 4.49 341.39 22.52 C 394.69 46.92 438.36 91.57 461.53 145.42 C 482.34 193.24 486.87 247.89 474.37 298.52 C 466.01 332.81 449.92 365.18 427.63 392.55 C 406.54 418.50 380.07 440.09 350.28 455.30 C 312.19 474.84 268.79 483.81 226.07 481.16 C 177.08 478.30 129.14 459.94 90.87 429.22 C 63.82 407.62 41.41 380.21 25.86 349.27 C 6.87 311.68 -1.87 269.03 0.63 227.01 C 3.06 184.12 17.25 141.95 41.39 106.41 C 70.80 62.86 114.75 29.26 164.70 12.82 C 181.21 7.33 198.31 3.65 215.61 1.84 M 280.09 96.06 C 265.70 103.65 252.67 113.65 240.89 124.83 C 227.82 112.94 213.68 101.91 197.63 94.35 C 187.79 89.84 176.97 86.47 166.03 87.64 C 158.85 88.36 152.00 91.82 147.29 97.31 C 140.18 105.40 137.31 116.21 135.89 126.66 C 133.95 145.54 136.16 164.60 140.42 183.03 C 128.05 186.71 116.02 191.57 104.62 197.61 C 94.35 203.16 84.56 209.97 77.01 218.97 C 71.90 225.16 68.11 232.86 68.01 241.01 C 68.15 250.10 72.78 258.54 78.82 265.11 C 89.39 276.64 103.33 284.36 117.49 290.61 C 125.06 293.80 132.73 296.81 140.65 299.02 C 136.89 316.37 134.42 334.19 135.90 351.97 C 136.80 360.96 138.59 370.06 142.96 378.07 C 146.92 385.63 153.84 391.89 162.29 393.87 C 174.09 396.84 186.30 393.03 197.09 388.27 C 213.48 380.65 228.02 369.52 241.12 357.18 C 250.54 365.81 260.55 373.85 271.41 380.60 C 282.03 387.14 293.64 392.61 306.10 394.32 C 315.70 395.66 326.28 393.39 333.21 386.27 C 342.19 377.27 345.25 364.21 346.44 351.97 C 347.75 334.17 345.59 316.30 341.58 298.97 C 349.65 296.66 357.50 293.60 365.22 290.30 C 378.90 284.20 392.33 276.70 402.67 265.67 C 408.34 259.67 412.78 252.15 413.81 243.85 C 414.80 234.51 410.50 225.44 404.57 218.48 C 394.92 207.25 381.97 199.47 368.68 193.28 C 359.83 189.20 350.70 185.68 341.34 182.98 C 345.14 165.65 347.56 147.84 346.11 130.09 C 344.97 118.77 342.38 106.96 335.03 97.95 C 330.18 91.90 322.84 87.97 315.10 87.36 C 302.82 86.20 290.87 90.60 280.09 96.06 Z" />
<path fill="#01a7f9" opacity="1.00" d=" M 157.71 109.68 C 159.95 106.18 163.79 103.69 167.97 103.42 C 176.32 102.68 184.41 105.68 191.85 109.13 C 205.78 115.90 218.12 125.54 229.47 135.98 C 218.92 147.02 209.36 158.93 200.23 171.16 C 185.23 172.47 170.38 175.28 155.73 178.72 C 152.08 162.41 150.04 145.59 151.70 128.89 C 152.54 122.22 154.00 115.40 157.71 109.68 Z" />
<path fill="#01a7f9" opacity="1.00" d=" M 291.89 107.94 C 299.53 104.53 308.08 101.89 316.49 103.71 C 324.08 106.14 326.97 114.55 328.70 121.55 C 332.65 140.46 329.88 159.96 326.07 178.65 C 311.46 175.29 296.68 172.42 281.73 171.17 C 272.32 159.04 262.89 146.86 252.08 135.92 C 264.08 124.98 277.03 114.72 291.89 107.94 Z" />
<path fill="#01a7f9" opacity="1.00" d=" M 221.50 169.46 C 227.66 161.73 234.03 154.15 240.91 147.03 C 247.58 154.29 254.15 161.66 260.26 169.41 C 247.34 168.80 234.42 168.75 221.50 169.46 Z" />
<path fill="#01a7f9" opacity="1.00" d=" M 209.05 186.31 C 230.23 184.27 251.63 184.30 272.80 186.28 C 284.76 203.61 295.38 221.86 304.33 240.92 C 295.64 259.37 285.56 277.17 274.06 294.01 C 273.27 295.66 271.58 296.18 269.88 296.18 C 255.61 296.79 241.30 297.85 227.02 296.82 C 221.07 296.54 215.08 296.59 209.17 295.70 C 197.25 278.37 186.61 260.14 177.68 241.09 C 186.62 222.01 197.15 203.70 209.05 186.31 M 233.38 209.64 C 224.87 211.65 217.33 217.34 213.03 224.95 C 206.30 236.10 207.58 251.19 215.85 261.19 C 225.38 273.64 244.42 277.03 257.66 268.63 C 270.95 260.93 277.09 243.06 270.93 228.91 C 265.35 214.41 248.44 205.60 233.38 209.64 Z" />
<path fill="#01a7f9" opacity="1.00" d=" M 159.90 194.02 C 169.42 191.88 179.00 190.05 188.63 188.53 C 181.51 199.26 175.31 210.57 169.29 221.95 C 166.00 212.70 162.28 203.56 159.90 194.02 Z" />
<path fill="#01a7f9" opacity="1.00" d=" M 293.30 188.52 C 302.91 190.05 312.48 191.81 321.95 194.03 C 319.44 203.44 315.87 212.51 312.70 221.71 C 306.59 210.45 300.43 199.19 293.30 188.52 Z" />
<path fill="#01a7f9" opacity="1.00" d=" M 94.04 224.05 C 108.40 211.48 126.45 204.21 144.38 198.34 C 148.53 212.35 153.59 226.07 159.46 239.45 C 160.50 241.25 159.30 243.13 158.65 244.83 C 153.10 257.47 148.57 270.53 144.57 283.74 C 127.44 278.13 110.29 271.26 96.17 259.78 C 91.19 255.55 86.20 250.57 84.44 244.09 C 82.63 236.01 88.56 229.14 94.04 224.05 Z" />
<path fill="#01a7f9" opacity="1.00" d=" M 322.75 238.64 C 328.49 225.51 333.33 212.00 337.41 198.27 C 352.34 203.10 367.12 208.97 380.12 217.90 C 386.29 222.25 392.34 227.22 396.04 233.93 C 398.47 238.20 398.50 243.76 396.05 248.03 C 392.38 254.77 386.29 259.73 380.12 264.10 C 367.19 272.98 352.48 278.86 337.62 283.66 C 333.51 269.89 328.62 256.35 322.80 243.21 C 322.00 241.74 321.94 240.11 322.75 238.64 Z" />
<path fill="#01a7f9" opacity="1.00" d=" M 160.03 287.94 C 162.83 278.72 165.56 269.40 169.61 260.65 C 175.43 271.89 181.74 282.89 188.68 293.49 C 179.08 291.95 169.50 290.21 160.03 287.94 Z" />
<path fill="#01a7f9" opacity="1.00" d=" M 312.60 260.07 C 316.15 269.24 319.62 278.46 322.10 287.98 C 312.58 290.12 303.00 291.95 293.36 293.49 C 300.43 282.74 306.76 271.52 312.60 260.07 Z" />
<path fill="#01a7f9" opacity="1.00" d=" M 281.79 310.84 C 296.79 309.53 311.63 306.73 326.28 303.28 C 329.92 319.53 331.93 336.30 330.31 352.95 C 329.47 359.68 328.03 366.58 324.27 372.35 C 322.06 375.79 318.30 378.27 314.19 378.57 C 305.49 379.37 297.07 376.15 289.36 372.48 C 275.73 365.74 263.69 356.23 252.49 346.03 C 263.09 335.02 272.62 323.05 281.79 310.84 Z" />
<path fill="#01a7f9" opacity="1.00" d=" M 153.66 361.95 C 149.15 342.62 152.05 322.54 155.93 303.36 C 170.55 306.70 185.34 309.60 200.30 310.82 C 209.65 323.00 219.13 335.13 229.92 346.08 C 217.94 357.00 205.03 367.25 190.20 374.02 C 182.53 377.45 173.96 380.12 165.52 378.29 C 158.44 376.09 155.44 368.47 153.66 361.95 Z" />
<path fill="#01a7f9" opacity="1.00" d=" M 221.72 312.58 C 234.65 313.27 247.59 313.30 260.52 312.54 C 254.34 320.26 247.98 327.85 241.10 334.96 C 234.41 327.70 227.85 320.32 221.72 312.58 Z" />
</g>
<g id="#fafafaff">
</g>
</svg>
