<?xml version="1.0" encoding="UTF-8" ?>
<!DOCTYPE svg PUBLIC "-//W3C//DTD SVG 1.1//EN" "http://www.w3.org/Graphics/SVG/1.1/DTD/svg11.dtd">
<svg width="482pt" height="482pt" viewBox="0 0 482 482" version="1.1" xmlns="http://www.w3.org/2000/svg">
<g id="#7549bcff">
<path fill="#7549bc" opacity="1.00" d=" M 227.31 0.00 L 254.84 0.00 C 258.38 1.56 262.31 0.71 266.03 1.24 C 271.56 2.06 277.16 2.50 282.64 3.66 C 283.87 3.89 285.11 4.09 286.35 4.31 C 288.02 4.73 289.71 5.03 291.40 5.34 C 294.77 6.11 298.17 6.75 301.50 7.67 C 303.84 8.38 306.21 9.03 308.56 9.72 C 309.03 9.86 309.97 10.14 310.43 10.28 C 312.13 10.79 313.85 11.24 315.55 11.76 C 316.01 11.87 316.93 12.08 317.39 12.19 C 319.44 13.00 321.49 13.79 323.52 14.67 C 324.55 15.03 325.58 15.41 326.60 15.80 C 327.08 15.88 328.03 16.03 328.51 16.11 C 329.51 16.71 330.50 17.31 331.51 17.91 C 331.98 17.97 332.92 18.08 333.39 18.14 C 335.05 19.01 336.73 19.85 338.43 20.68 C 340.84 21.52 343.17 22.56 345.46 23.69 C 346.49 24.22 347.52 24.76 348.57 25.30 C 349.90 25.95 351.24 26.60 352.59 27.24 C 355.24 28.62 357.78 30.19 360.37 31.68 C 362.50 32.77 364.54 34.02 366.60 35.24 C 391.76 50.62 413.82 70.83 431.97 94.01 C 439.03 103.45 445.85 113.14 451.30 123.62 C 452.80 126.20 454.37 128.75 455.74 131.41 C 456.40 132.75 457.07 134.09 457.77 135.41 C 458.71 137.42 459.59 139.46 460.32 141.56 C 461.14 143.25 461.98 144.92 462.86 146.58 C 462.92 147.06 463.03 148.02 463.09 148.50 C 463.69 149.50 464.31 150.50 464.92 151.51 C 464.97 151.99 465.05 152.96 465.09 153.45 C 465.65 154.43 466.20 155.42 466.75 156.41 C 467.06 157.47 467.39 158.53 467.73 159.58 C 467.86 160.04 468.10 160.97 468.22 161.43 C 468.73 162.79 469.21 164.16 469.72 165.52 C 470.02 166.52 470.33 167.53 470.66 168.53 C 471.00 169.53 471.36 170.52 471.73 171.51 C 472.28 173.49 472.84 175.47 473.37 177.47 C 473.71 178.79 474.01 180.12 474.33 181.45 C 474.80 183.14 475.21 184.85 475.70 186.55 C 476.81 191.58 477.70 196.66 478.73 201.71 C 478.92 203.55 479.08 205.40 479.30 207.25 C 480.06 210.40 479.90 213.70 480.79 216.84 C 481.22 221.32 480.42 225.99 482.00 230.31 L 482.00 251.91 C 479.96 256.64 481.86 261.96 480.29 266.80 C 480.08 271.36 479.30 275.85 478.68 280.35 C 478.12 282.74 477.87 285.18 477.37 287.58 C 477.03 289.24 476.72 290.92 476.31 292.58 C 476.10 293.51 475.91 294.45 475.71 295.40 C 475.32 296.73 474.97 298.08 474.63 299.43 C 474.28 300.76 473.98 302.10 473.68 303.45 C 473.19 305.15 472.78 306.86 472.29 308.56 C 472.16 309.03 471.88 309.97 471.75 310.43 C 471.38 311.44 471.03 312.45 470.69 313.47 C 469.90 315.85 469.13 318.24 468.26 320.59 C 468.13 321.05 467.88 321.96 467.75 322.42 C 467.39 323.44 467.04 324.46 466.71 325.49 C 465.94 327.50 465.18 329.52 464.37 331.52 C 463.57 333.59 462.66 335.62 461.69 337.61 C 460.95 339.22 460.28 340.87 459.68 342.54 C 459.03 343.88 458.38 345.22 457.74 346.56 C 457.48 347.07 456.95 348.08 456.69 348.59 C 456.03 349.92 455.39 351.25 454.76 352.59 C 453.16 355.64 451.26 358.52 449.71 361.60 C 448.75 363.28 447.73 364.92 446.75 366.59 C 438.93 379.49 429.71 391.50 419.73 402.79 C 413.88 408.60 408.07 414.45 402.23 420.27 C 389.67 431.37 376.13 441.45 361.55 449.74 C 360.16 450.57 358.81 451.46 357.44 452.31 C 355.81 453.10 354.18 453.91 352.56 454.73 C 351.51 455.23 350.47 455.75 349.43 456.27 C 347.82 457.09 346.20 457.89 344.59 458.72 C 344.08 458.97 343.06 459.46 342.55 459.71 C 341.16 460.41 339.79 461.12 338.42 461.85 C 337.97 461.93 337.06 462.10 336.61 462.18 C 334.32 463.38 331.97 464.46 329.53 465.32 C 327.46 466.06 325.40 466.85 323.39 467.76 C 322.93 467.87 322.03 468.10 321.57 468.22 C 320.21 468.73 318.83 469.21 317.47 469.72 C 316.47 470.02 315.47 470.33 314.48 470.66 C 313.47 471.00 312.47 471.35 311.47 471.72 C 309.48 472.25 307.50 472.81 305.51 473.34 C 303.83 473.80 302.13 474.19 300.45 474.66 C 299.09 474.98 297.73 475.32 296.39 475.71 C 295.46 475.90 294.52 476.10 293.60 476.31 C 291.54 476.82 289.46 477.17 287.41 477.69 C 283.38 478.46 279.29 478.90 275.27 479.71 C 273.43 479.91 271.58 480.08 269.75 480.31 C 265.52 481.59 260.92 480.24 256.81 482.00 L 224.68 482.00 C 221.18 480.77 217.46 481.03 213.83 480.76 C 210.72 479.93 207.47 480.02 204.33 479.39 C 202.32 479.06 200.31 478.78 198.33 478.31 C 197.10 478.11 195.87 477.93 194.64 477.75 C 192.58 477.22 190.48 476.84 188.42 476.33 C 186.75 476.02 185.08 475.74 183.43 475.38 C 182.12 475.03 180.81 474.69 179.52 474.32 C 177.16 473.62 174.79 472.97 172.44 472.28 C 171.97 472.15 171.03 471.87 170.56 471.74 C 166.08 470.52 161.71 468.96 157.41 467.21 C 156.96 467.11 156.04 466.91 155.58 466.81 C 152.21 465.42 148.88 463.92 145.45 462.69 C 143.82 461.89 142.18 461.10 140.55 460.31 C 137.46 459.19 134.49 457.78 131.55 456.33 C 128.52 454.69 125.64 452.81 122.56 451.28 C 120.45 450.20 118.43 448.96 116.39 447.76 C 97.45 436.24 80.08 422.21 64.76 406.21 C 59.95 400.41 54.78 394.92 50.21 388.92 C 44.58 381.76 39.64 374.09 34.70 366.45 C 33.58 364.49 32.40 362.57 31.30 360.61 C 29.85 357.84 28.15 355.20 26.69 352.44 C 25.89 350.82 25.09 349.20 24.27 347.60 C 22.94 344.94 21.64 342.26 20.69 339.44 C 19.86 337.75 19.02 336.07 18.13 334.41 C 18.08 333.94 17.97 332.98 17.91 332.50 C 17.31 331.50 16.70 330.50 16.10 329.51 C 16.03 329.03 15.89 328.09 15.82 327.62 C 14.87 325.59 14.03 323.51 13.17 321.44 C 13.07 320.98 12.88 320.05 12.78 319.59 C 12.40 318.57 12.03 317.56 11.67 316.54 C 11.32 315.53 10.99 314.52 10.65 313.51 C 10.19 311.82 9.79 310.12 9.31 308.45 C 9.15 307.97 8.83 307.03 8.67 306.56 C 8.30 305.23 7.97 303.90 7.64 302.57 C 7.29 301.24 6.97 299.90 6.66 298.57 C 6.29 297.23 5.96 295.89 5.64 294.55 C 5.16 292.49 4.81 290.41 4.29 288.36 C 4.09 287.12 3.90 285.88 3.69 284.65 C 3.11 282.22 2.89 279.73 2.29 277.31 C 1.28 271.34 1.42 265.20 0.00 259.32 L 0.00 223.20 C 1.54 216.71 1.28 209.91 2.63 203.36 C 2.94 201.35 3.21 199.33 3.68 197.35 C 3.89 196.11 4.09 194.87 4.30 193.63 C 4.81 191.58 5.15 189.50 5.62 187.44 C 5.98 186.08 6.33 184.73 6.73 183.39 C 6.91 182.45 7.08 181.52 7.25 180.60 C 7.77 178.88 8.21 177.15 8.72 175.44 C 8.86 174.97 9.14 174.03 9.27 173.56 C 9.80 171.86 10.26 170.14 10.79 168.44 C 10.89 167.97 11.09 167.04 11.19 166.57 C 11.74 165.19 12.27 163.79 12.83 162.41 C 12.90 161.95 13.05 161.02 13.13 160.56 C 13.67 159.56 14.21 158.57 14.75 157.58 C 15.07 156.51 15.40 155.45 15.75 154.40 C 15.86 153.94 16.06 153.02 16.16 152.56 C 16.67 151.57 17.17 150.58 17.67 149.59 C 18.74 146.46 20.21 143.50 21.66 140.53 C 22.73 137.43 24.22 134.49 25.67 131.55 C 27.30 128.53 29.18 125.64 30.72 122.57 C 31.80 120.46 33.03 118.44 34.23 116.41 C 42.68 102.80 52.06 89.67 63.18 78.10 C 68.79 70.41 76.60 64.88 83.35 58.31 C 92.89 50.36 102.75 42.70 113.40 36.26 C 114.81 35.43 116.19 34.56 117.60 33.74 C 119.54 32.61 121.44 31.40 123.37 30.25 C 124.73 29.61 126.08 28.96 127.42 28.29 C 129.14 27.44 130.86 26.57 132.58 25.72 C 134.19 24.90 135.80 24.10 137.41 23.29 C 137.92 23.03 138.92 22.50 139.43 22.24 C 142.08 20.92 144.78 19.67 147.59 18.70 C 148.57 18.19 149.55 17.67 150.53 17.14 C 150.99 17.05 151.91 16.88 152.37 16.79 C 154.38 15.86 156.44 15.05 158.50 14.26 C 159.53 13.94 160.55 13.60 161.57 13.26 C 162.04 13.13 162.96 12.88 163.42 12.75 C 164.44 12.39 165.45 12.04 166.48 11.69 C 167.82 11.21 169.18 10.76 170.53 10.28 C 172.87 9.65 175.22 9.01 177.56 8.34 C 178.91 8.01 180.26 7.67 181.60 7.29 C 182.53 7.10 183.46 6.91 184.40 6.73 C 185.74 6.32 187.10 5.96 188.47 5.60 C 190.10 5.24 191.75 4.95 193.40 4.64 C 195.81 4.11 198.28 3.88 200.68 3.30 C 202.21 3.08 203.75 2.89 205.28 2.67 C 207.88 2.05 210.55 1.96 213.20 1.68 C 217.81 0.36 222.78 1.76 227.31 0.00 M 226.65 79.60 C 210.88 82.86 196.77 92.25 186.65 104.65 C 175.49 118.13 169.68 135.19 166.71 152.24 C 161.97 180.68 168.15 210.28 181.57 235.60 C 182.67 237.74 184.04 239.77 184.79 242.08 C 184.30 246.08 182.10 249.92 182.94 254.05 C 183.87 261.16 189.17 267.47 196.14 269.34 C 204.68 272.00 214.78 267.21 218.10 258.90 C 221.24 251.77 219.11 242.77 213.12 237.80 C 209.10 234.02 203.36 233.37 198.10 233.20 C 183.85 209.30 178.49 180.46 182.73 152.99 C 185.01 138.99 190.55 125.44 199.17 114.15 C 208.03 102.32 222.68 96.19 237.03 94.52 C 248.24 93.13 259.73 97.46 267.74 105.31 C 280.77 117.71 287.48 135.38 290.02 152.89 C 295.40 154.96 300.99 156.39 306.52 158.02 C 305.01 133.81 296.11 108.82 277.20 92.78 C 263.52 81.08 244.36 75.27 226.65 79.60 M 205.48 171.03 C 204.93 182.07 216.27 191.50 227.02 189.16 C 233.17 188.30 237.82 183.62 240.92 178.54 C 258.87 177.07 277.04 180.78 293.62 187.60 C 314.54 196.47 333.96 210.88 344.90 231.19 C 350.52 241.44 354.22 253.30 352.47 265.08 C 349.56 283.52 334.38 299.35 316.04 302.95 C 301.29 306.17 286.10 302.67 272.24 297.46 C 267.49 301.53 262.50 305.32 257.61 309.22 C 270.74 315.68 285.34 319.43 300.02 319.16 C 318.83 319.50 337.80 312.48 351.52 299.54 C 360.71 290.90 367.68 278.89 367.74 266.02 C 367.42 257.72 368.69 249.18 366.04 241.13 C 360.80 220.87 347.05 203.90 331.01 190.96 C 308.28 172.53 279.04 163.18 249.97 162.48 C 246.80 162.42 243.61 162.73 240.47 162.31 C 236.83 158.57 233.30 154.09 227.77 153.23 C 216.87 150.33 205.09 159.77 205.48 171.03 M 115.34 244.30 C 112.44 260.53 114.80 278.12 123.81 292.15 C 132.11 305.12 146.46 313.09 161.14 316.65 C 179.91 321.29 199.73 318.27 217.72 311.88 C 248.17 301.84 274.25 279.40 288.81 250.85 C 290.86 245.53 297.94 246.51 301.21 242.28 C 308.44 235.71 308.65 223.14 301.54 216.40 C 296.77 211.00 288.67 209.87 282.04 211.94 C 274.65 214.48 269.58 222.21 270.12 229.99 C 270.05 234.62 272.67 238.61 275.16 242.29 C 265.29 261.51 249.23 276.99 230.58 287.67 C 213.02 298.43 192.15 305.06 171.43 302.44 C 160.32 301.30 149.12 296.97 141.47 288.58 C 130.92 277.16 125.85 260.24 130.28 245.10 C 134.21 229.90 144.86 217.59 156.54 207.60 C 154.77 202.13 153.41 196.55 152.13 190.95 C 133.99 203.46 119.43 222.32 115.34 244.30 M 247.31 333.89 C 247.36 341.64 247.29 349.39 247.36 357.14 C 240.46 352.74 230.65 352.84 224.37 358.32 C 217.20 364.16 214.98 374.12 215.88 382.95 C 216.46 389.80 218.97 397.07 224.83 401.15 C 228.83 404.18 234.18 404.22 238.89 403.25 C 242.37 402.23 245.18 399.79 248.07 397.71 C 248.84 399.33 249.61 400.96 250.38 402.60 C 254.26 403.29 258.20 403.39 262.13 403.31 C 262.14 380.16 262.14 357.00 262.13 333.85 C 257.19 333.83 252.25 333.82 247.31 333.89 M 115.73 335.70 C 115.57 358.21 115.59 380.74 115.72 403.26 C 121.02 403.31 126.32 403.27 131.62 403.32 C 131.76 394.89 131.62 386.47 131.70 378.05 C 134.40 378.35 138.00 377.56 139.68 380.33 C 143.90 386.60 147.06 393.52 151.19 399.84 C 152.41 401.84 154.60 403.17 156.96 403.23 C 161.86 403.45 166.78 403.24 171.70 403.25 C 167.87 395.94 163.07 389.21 158.93 382.08 C 157.31 379.34 155.15 376.98 152.95 374.70 C 157.39 372.13 161.89 368.88 163.85 363.94 C 167.08 356.38 165.66 346.35 158.89 341.17 C 152.69 336.38 144.52 335.70 136.97 335.54 C 129.89 335.58 122.81 335.42 115.73 335.70 M 179.88 356.80 C 173.82 359.68 169.47 365.58 168.05 372.09 C 166.42 380.65 167.92 390.37 174.23 396.78 C 184.70 407.14 203.53 405.79 213.45 395.29 C 211.43 393.02 209.63 390.46 207.11 388.71 C 201.82 388.56 197.64 393.52 192.18 392.55 C 186.49 392.30 183.22 386.95 182.03 381.97 C 191.86 380.96 201.76 382.07 211.59 381.34 C 213.17 381.29 213.12 379.15 213.20 378.02 C 213.51 371.99 212.47 365.43 208.16 360.89 C 201.12 353.29 188.87 352.22 179.88 356.80 M 268.85 354.92 C 268.85 363.95 268.83 372.99 268.84 382.02 C 268.97 386.10 269.13 390.33 270.75 394.14 C 273.06 400.14 279.52 404.27 285.95 403.79 C 290.98 404.15 295.49 401.45 299.30 398.47 C 300.45 400.09 301.07 402.49 303.23 403.07 C 306.52 403.55 309.87 403.25 313.19 403.28 C 313.20 387.16 313.20 371.04 313.19 354.92 C 308.25 354.91 303.32 354.87 298.39 355.02 C 298.43 366.41 298.37 377.79 298.43 389.18 C 295.48 390.71 292.48 393.04 288.97 392.50 C 285.99 391.99 283.95 389.00 284.11 386.06 C 284.03 375.69 284.15 365.31 284.08 354.94 C 279.00 354.91 273.92 354.91 268.85 354.92 M 315.88 354.93 C 320.77 362.84 326.20 370.39 331.44 378.07 C 326.20 386.54 320.08 394.46 315.31 403.22 C 319.57 403.25 323.85 403.50 328.11 403.18 C 330.78 403.03 332.31 400.61 333.60 398.59 C 335.98 394.62 338.17 390.54 340.73 386.69 C 343.40 390.92 345.75 395.35 348.40 399.60 C 349.56 401.53 351.46 403.36 353.89 403.26 C 358.45 403.43 363.02 403.24 367.59 403.27 C 362.26 394.53 356.38 386.14 351.21 377.31 C 356.38 369.87 361.72 362.54 366.65 354.93 C 361.53 355.05 356.37 354.54 351.28 355.20 C 347.38 359.61 345.19 365.22 342.06 370.16 C 339.55 366.22 337.29 362.13 334.81 358.17 C 333.86 356.85 332.85 355.07 331.01 355.03 C 325.98 354.70 320.92 355.00 315.88 354.93 Z" />
<path fill="#7549bc" opacity="1.00" d=" M 131.68 347.78 C 136.87 347.93 143.10 346.75 147.19 350.78 C 151.95 355.08 149.68 363.85 143.89 366.04 C 139.99 367.56 135.71 367.37 131.64 366.79 C 131.71 360.46 131.67 354.12 131.68 347.78 Z" />
<path fill="#7549bc" opacity="1.00" d=" M 182.04 372.53 C 183.92 368.55 187.07 363.98 192.06 364.30 C 196.76 364.50 199.65 368.87 200.44 373.11 C 194.31 373.07 188.12 373.56 182.04 372.53 Z" />
<path fill="#7549bc" opacity="1.00" d=" M 236.71 365.67 C 240.33 364.20 244.24 365.61 247.39 367.53 C 247.09 374.29 247.70 381.09 247.11 387.83 C 244.50 392.52 235.93 394.27 233.10 388.97 C 230.84 385.03 231.19 380.28 231.32 375.91 C 231.58 372.00 233.00 367.58 236.71 365.67 Z" />
</g>
<g id="#fafafaff">
</g>
</svg>
