<?xml version="1.0" encoding="UTF-8" ?>
<!DOCTYPE svg PUBLIC "-//W3C//DTD SVG 1.1//EN" "http://www.w3.org/Graphics/SVG/1.1/DTD/svg11.dtd">
<svg width="1004pt" height="1004pt" viewBox="0 0 1004 1004" version="1.1" xmlns="http://www.w3.org/2000/svg">
<g id="#000000ff">
<path fill="#000000" opacity="1.00" d=" M 472.97 0.00 L 531.50 0.00 C 537.81 2.09 544.47 2.05 551.04 2.05 C 571.56 4.15 591.96 7.45 612.10 11.95 C 627.11 14.83 641.58 19.84 656.31 23.85 C 665.98 26.23 674.76 31.19 684.41 33.65 C 689.79 36.60 695.88 37.86 701.24 40.85 C 705.51 43.15 710.17 44.57 714.57 46.58 C 740.51 59.00 765.63 73.23 789.21 89.74 C 807.66 102.72 825.21 116.96 841.79 132.25 C 849.23 139.46 857.15 146.20 863.95 154.06 C 891.16 182.08 915.01 213.39 934.77 247.09 C 943.00 262.34 952.52 277.01 958.64 293.31 C 960.42 297.93 963.28 302.08 964.59 306.88 C 965.63 310.81 968.24 314.12 969.09 318.12 C 969.67 320.53 970.91 322.70 972.00 324.91 C 973.62 328.26 974.33 331.93 975.45 335.46 C 978.67 345.20 982.40 354.79 985.01 364.73 C 988.78 379.57 992.89 394.34 995.37 409.48 C 997.59 418.84 998.17 428.45 999.66 437.94 C 1000.18 445.35 1002.51 452.57 1002.01 460.05 C 1001.74 466.42 1002.37 472.80 1004.00 478.97 L 1004.00 525.15 C 1002.29 530.94 1001.71 536.97 1002.01 542.98 C 1002.39 550.42 1000.27 557.65 999.94 565.05 C 997.48 585.99 993.59 606.78 988.11 627.15 C 985.03 641.54 979.92 655.37 975.28 669.31 C 971.88 680.19 967.75 690.85 963.05 701.23 C 960.06 707.10 958.20 713.47 955.12 719.30 C 950.51 728.27 946.36 737.49 941.04 746.07 C 922.88 779.54 900.13 810.37 874.87 838.80 C 862.57 851.20 850.22 863.55 837.82 875.85 C 822.06 889.91 805.45 903.04 788.11 915.11 C 774.12 925.04 759.21 933.56 744.54 942.42 C 736.38 946.66 728.09 950.65 719.89 954.81 C 713.76 957.74 707.90 961.29 701.38 963.31 C 670.81 976.78 638.73 986.70 606.06 993.67 C 594.85 996.38 583.38 997.69 572.02 999.62 C 564.65 1000.07 557.45 1002.23 550.03 1002.02 C 545.10 1001.90 540.22 1002.73 535.48 1004.00 L 466.87 1004.00 C 458.09 1001.23 448.78 1002.70 439.87 1000.69 C 423.36 998.87 407.00 995.81 390.79 992.22 C 378.59 990.27 366.93 986.04 355.03 982.87 C 347.61 980.84 340.31 978.42 333.16 975.60 C 327.89 973.45 322.30 972.21 317.13 969.82 C 309.95 966.53 302.34 964.25 295.39 960.46 C 286.28 956.42 276.87 952.92 268.34 947.70 C 260.21 942.66 251.49 938.68 243.37 933.62 C 203.06 909.30 166.07 879.47 133.73 845.26 C 121.91 831.36 109.55 817.87 98.81 803.09 C 78.71 775.68 60.78 746.61 46.26 715.86 C 44.27 711.45 42.82 706.82 40.51 702.56 C 37.70 697.70 36.83 692.04 33.93 687.23 C 31.95 679.94 28.07 673.34 26.20 666.01 C 17.16 638.87 10.08 611.05 5.51 582.79 C 2.44 569.15 2.96 555.03 0.00 541.38 L 0.00 463.61 C 2.79 450.87 2.57 437.73 4.92 424.93 C 7.37 410.39 9.82 395.82 13.71 381.59 C 15.92 370.37 19.88 359.60 22.66 348.52 C 23.77 344.43 25.60 340.58 26.70 336.49 C 27.93 331.77 30.92 327.74 32.04 322.98 C 33.64 316.20 37.25 310.18 39.60 303.67 C 45.37 291.96 49.54 279.48 56.30 268.26 C 61.46 259.92 65.58 251.01 70.78 242.70 C 86.87 216.79 104.47 191.67 125.10 169.15 C 128.47 165.47 131.82 161.78 134.94 157.88 C 145.57 144.89 159.07 134.74 171.21 123.25 C 180.05 115.34 189.48 108.10 198.83 100.81 C 217.26 86.48 237.12 74.13 257.38 62.58 C 270.28 56.09 283.20 49.64 296.13 43.19 C 301.69 40.76 307.35 38.57 312.85 35.99 C 320.76 33.50 328.17 29.67 336.16 27.42 C 344.85 24.95 353.21 21.42 362.00 19.24 C 369.42 17.09 376.91 15.22 384.45 13.53 C 395.01 10.36 405.96 8.91 416.77 6.86 C 425.50 5.44 434.23 4.06 443.04 3.25 C 452.90 1.04 463.21 2.97 472.97 0.00 M 474.17 165.62 C 445.41 171.28 418.90 186.56 398.64 207.61 C 382.25 223.97 370.02 244.16 361.62 265.66 C 351.89 291.01 345.91 317.86 344.52 345.00 C 344.76 350.89 343.45 356.77 344.31 362.65 C 345.26 409.67 359.05 456.07 382.00 496.99 C 383.35 499.87 385.50 502.80 384.90 506.16 C 383.89 512.49 380.94 518.47 380.98 524.97 C 381.21 534.61 385.33 544.04 392.11 550.88 C 398.79 557.92 408.34 561.89 417.97 562.35 C 428.80 562.45 439.57 557.86 446.94 549.92 C 453.00 543.90 456.27 535.49 456.96 527.06 C 457.84 514.49 452.03 501.69 441.95 494.11 C 433.59 487.54 422.54 486.37 412.27 485.93 C 401.39 467.18 392.57 447.17 386.86 426.24 C 375.98 386.88 374.12 344.78 383.07 304.86 C 389.17 279.50 400.40 255.21 416.76 234.81 C 422.16 227.88 428.94 222.19 436.08 217.11 C 454.85 204.27 477.39 197.69 499.94 196.04 C 518.99 195.48 537.98 202.33 552.70 214.36 C 565.52 225.41 576.18 238.89 584.08 253.86 C 594.71 273.81 601.09 295.84 604.33 318.16 C 615.31 322.50 626.78 325.37 638.10 328.67 C 637.20 311.97 634.32 295.38 629.78 279.29 C 620.47 246.01 602.58 214.46 575.71 192.29 C 547.96 169.31 509.77 157.59 474.17 165.62 M 453.91 320.59 C 441.51 324.99 431.44 336.00 428.88 348.99 C 428.09 353.92 427.94 359.02 428.88 363.94 C 432.60 383.78 454.38 398.57 474.17 393.52 C 486.22 391.08 495.50 381.81 501.60 371.58 C 553.23 367.76 605.39 382.70 649.16 409.86 C 677.58 427.63 702.74 451.65 718.69 481.37 C 728.93 499.87 735.80 520.72 735.44 542.03 C 734.18 577.64 710.33 610.55 678.14 625.03 C 664.65 631.18 649.77 633.47 635.06 634.02 C 611.83 633.93 588.97 628.25 567.37 619.99 C 557.36 628.12 547.31 636.22 537.09 644.08 C 563.82 656.86 593.22 664.94 623.00 664.50 C 667.37 665.84 712.56 647.33 741.65 613.50 C 754.14 598.66 763.44 580.53 765.37 561.03 C 765.80 551.68 765.04 542.29 766.01 532.96 C 765.70 522.61 765.45 512.06 762.13 502.14 C 755.47 476.77 742.23 453.50 725.52 433.42 C 702.00 405.68 672.86 382.53 639.93 366.95 C 601.48 348.20 558.62 339.15 515.96 338.58 C 510.86 339.32 505.74 338.82 500.64 338.42 C 495.37 332.69 490.14 326.68 483.36 322.67 C 474.43 317.91 463.41 317.05 453.91 320.59 M 252.06 473.27 C 236.20 506.79 233.54 546.45 245.38 581.65 C 252.05 601.68 264.10 620.12 280.80 633.20 C 308.41 654.91 344.17 664.64 378.98 664.02 C 404.54 663.31 429.85 657.83 453.87 649.15 C 489.94 637.24 523.09 616.83 550.43 590.50 C 553.37 588.09 556.00 585.33 558.45 582.43 C 576.12 564.12 590.86 543.04 602.37 520.37 C 607.68 511.36 620.37 512.55 626.92 504.87 C 639.94 493.01 642.36 471.81 632.90 457.09 C 629.93 452.78 626.14 449.04 622.00 445.87 C 611.17 438.65 596.71 437.92 584.81 442.85 C 570.41 449.23 561.31 465.35 563.01 480.99 C 563.51 489.83 568.70 497.45 573.56 504.52 C 558.98 533.27 537.47 558.25 512.19 578.12 C 498.79 588.80 484.10 597.71 469.17 606.06 C 447.97 617.52 424.97 625.89 401.11 629.54 C 382.10 632.57 362.62 631.96 343.78 628.19 C 325.63 624.17 307.91 615.85 295.11 602.10 C 282.53 588.71 273.67 571.88 269.87 553.91 C 267.75 545.45 267.87 536.68 268.02 528.03 C 268.36 519.54 270.69 511.31 273.18 503.24 C 279.58 483.92 291.32 466.80 305.07 451.97 C 311.29 444.72 318.71 438.68 325.64 432.14 C 322.11 421.00 319.22 409.65 316.77 398.22 C 289.39 417.26 266.11 442.86 252.06 473.27 M 515.51 695.50 C 515.49 711.73 515.52 727.96 515.49 744.20 C 505.89 738.73 494.41 735.92 483.51 738.65 C 469.93 741.66 459.17 752.54 454.12 765.21 C 448.14 780.32 448.23 797.43 452.93 812.88 C 456.10 822.83 462.31 832.22 471.63 837.33 C 479.93 841.74 489.90 841.74 498.79 839.26 C 505.44 836.84 511.03 832.29 516.53 827.96 C 518.50 831.34 520.25 834.84 521.85 838.42 C 529.83 839.63 537.93 840.14 546.00 840.00 C 546.00 791.83 546.00 743.67 546.00 695.50 C 535.83 695.50 525.67 695.50 515.51 695.50 M 241.51 699.52 C 241.69 704.35 241.23 709.16 241.00 713.98 C 240.99 740.32 241.00 766.67 241.00 793.01 C 241.07 808.51 240.71 824.03 241.52 839.51 C 252.29 840.61 263.18 839.71 274.00 840.00 C 273.99 822.39 274.02 804.78 273.98 787.17 C 279.37 787.99 286.06 786.17 290.22 790.66 C 299.67 804.00 306.21 819.13 315.29 832.71 C 317.75 836.80 322.28 839.52 327.08 839.61 C 337.05 840.43 347.08 840.00 357.05 839.43 C 348.88 824.40 339.07 810.36 330.50 795.57 C 327.17 789.92 322.50 785.29 318.21 780.40 C 325.70 775.76 333.53 770.85 338.25 763.17 C 346.35 750.17 346.72 732.57 338.55 719.53 C 333.15 710.58 323.34 705.45 313.63 702.53 C 297.45 698.31 280.56 699.11 263.99 699.00 C 256.48 698.65 249.01 699.59 241.51 699.52 M 357.97 758.01 C 348.43 771.07 347.20 788.58 350.94 803.92 C 353.94 816.64 362.25 828.12 373.91 834.21 C 396.30 846.65 426.18 841.51 444.18 823.62 C 440.42 818.87 436.50 814.13 431.74 810.36 C 425.87 809.14 420.39 812.93 415.13 815.07 C 408.33 818.55 399.93 819.28 392.89 816.13 C 384.99 812.23 380.90 803.76 378.73 795.64 C 389.41 793.88 400.26 794.67 411.02 794.50 C 421.40 794.34 431.80 794.91 442.15 793.98 C 444.04 790.30 444.13 786.09 444.01 782.05 C 443.71 775.25 442.69 768.37 439.95 762.09 C 437.31 755.62 432.37 750.34 426.82 746.23 C 405.65 731.52 372.78 736.57 357.97 758.01 M 560.51 739.50 C 560.45 745.00 560.58 750.49 560.48 755.99 C 559.57 767.63 560.17 779.32 559.99 790.98 C 560.61 799.93 560.21 809.12 563.12 817.74 C 565.07 824.04 568.75 829.92 574.07 833.91 C 584.40 842.20 599.62 843.24 611.35 837.35 C 615.82 835.37 619.59 832.20 623.73 829.66 C 625.84 832.96 627.25 837.38 631.11 839.06 C 637.97 840.54 645.04 839.85 652.00 840.00 C 652.00 806.50 652.00 773.00 652.00 739.50 C 642.00 739.50 632.00 739.50 622.00 739.50 C 622.01 763.26 621.99 787.02 622.01 810.77 C 617.27 813.43 612.65 816.60 607.24 817.72 C 603.11 818.64 598.46 817.65 595.42 814.62 C 592.75 811.80 591.31 807.90 591.47 804.04 C 591.52 782.53 591.49 761.01 591.50 739.50 C 581.16 739.50 570.84 739.50 560.51 739.50 M 658.45 739.46 C 668.65 755.72 679.60 771.51 690.76 787.12 C 680.30 804.94 667.39 821.26 657.43 839.41 C 666.59 839.92 675.86 840.64 684.99 839.20 C 689.19 838.25 691.74 834.40 693.98 831.04 C 699.32 822.36 704.10 813.34 709.70 804.82 C 715.35 813.48 720.08 822.69 725.52 831.48 C 727.44 834.48 729.80 837.47 733.15 838.94 C 736.33 839.87 739.69 839.95 742.99 840.01 C 750.37 839.98 757.76 840.11 765.14 839.77 C 754.06 821.67 741.89 804.26 731.17 785.96 C 741.86 770.49 752.94 755.29 763.15 739.49 C 752.80 739.72 742.42 738.99 732.12 740.03 C 723.69 749.39 719.09 761.30 712.48 771.87 C 707.92 764.31 703.46 756.69 698.91 749.13 C 696.92 745.99 695.04 742.52 691.87 740.43 C 689.67 739.59 687.30 739.49 684.99 739.48 C 676.14 739.49 667.30 739.55 658.45 739.46 Z" />
<path fill="#000000" opacity="1.00" d=" M 274.00 724.00 C 284.55 724.37 296.67 722.16 305.55 729.31 C 316.43 737.50 313.17 756.51 301.29 762.13 C 292.80 766.18 283.08 765.13 274.01 764.42 C 273.99 750.94 274.00 737.47 274.00 724.00 Z" />
<path fill="#000000" opacity="1.00" d=" M 392.74 759.83 C 398.70 757.03 406.10 758.74 410.81 763.15 C 414.64 767.05 416.94 772.22 417.91 777.56 C 404.85 777.20 391.72 778.26 378.73 776.36 C 381.64 769.71 385.85 762.89 392.74 759.83 Z" />
<path fill="#000000" opacity="1.00" d=" M 491.94 761.90 C 499.65 757.93 508.60 761.11 515.53 765.24 C 515.47 776.82 515.51 788.41 515.52 799.99 C 515.46 802.91 515.33 805.87 514.62 808.72 C 510.87 814.46 503.82 817.62 497.03 817.06 C 491.44 817.50 486.38 813.61 484.28 808.63 C 480.70 800.92 481.53 792.24 481.51 783.99 C 481.85 775.73 484.47 766.47 491.94 761.90 Z" />
</g>
</svg>
