<?xml version="1.0" encoding="UTF-8" ?>
<!DOCTYPE svg PUBLIC "-//W3C//DTD SVG 1.1//EN" "http://www.w3.org/Graphics/SVG/1.1/DTD/svg11.dtd">
<svg width="505pt" height="505pt" viewBox="0 0 505 505" version="1.1" xmlns="http://www.w3.org/2000/svg">
<g id="#e98db8ff">
<path fill="#e98db8" opacity="1.00" d=" M 235.62 2.82 C 271.00 0.47 306.88 5.66 340.08 18.15 C 386.61 35.53 427.62 67.22 456.29 107.77 C 483.91 146.56 500.05 193.41 502.00 241.00 C 504.08 284.60 494.51 328.72 474.35 367.45 C 458.00 398.95 434.91 426.95 407.01 448.89 C 375.73 473.64 338.42 490.74 299.21 498.13 C 253.13 506.89 204.55 502.61 160.87 485.39 C 109.66 465.48 65.54 428.04 37.42 380.85 C 17.44 347.64 5.47 309.69 2.68 271.04 C -0.27 231.27 6.27 190.77 22.04 154.11 C 38.25 116.06 64.14 82.21 96.55 56.51 C 135.98 24.97 185.22 5.95 235.62 2.82 M 170.82 161.87 C 153.26 171.42 136.76 183.47 124.15 199.11 C 117.75 207.24 112.30 216.57 110.49 226.87 C 108.64 237.45 114.21 247.44 120.66 255.35 C 134.15 271.56 153.23 281.42 169.35 294.59 C 161.84 298.99 154.30 303.31 146.90 307.89 C 138.67 313.03 130.61 319.02 125.34 327.33 C 120.84 334.16 118.50 342.76 120.57 350.84 C 121.78 355.93 124.14 361.48 129.17 363.83 C 139.40 367.65 151.10 366.45 160.78 361.60 C 170.82 357.10 179.31 349.15 184.15 339.24 C 190.86 326.03 191.91 309.86 186.00 296.17 C 191.66 293.03 197.17 289.62 202.89 286.57 C 200.11 296.99 197.61 307.99 200.13 318.73 C 201.40 324.24 203.42 329.67 206.68 334.32 C 210.57 339.50 219.47 339.65 223.31 334.35 C 228.31 327.25 231.41 319.08 235.17 311.32 C 235.09 317.74 234.10 324.63 237.33 330.52 C 238.80 333.39 242.50 335.26 245.55 333.68 C 249.53 331.86 252.19 328.10 254.64 324.61 C 265.15 306.91 273.83 288.19 281.54 269.12 C 283.83 277.87 286.91 286.44 291.36 294.33 C 284.90 303.75 276.82 311.93 270.16 321.18 C 267.96 323.92 268.95 328.40 272.50 329.37 C 277.64 330.37 283.02 329.50 287.96 327.90 C 296.02 325.03 304.31 319.75 307.18 311.26 C 309.54 304.19 306.84 296.95 305.01 290.12 C 310.99 280.01 316.87 269.84 322.88 259.75 C 324.73 267.90 326.92 276.11 331.30 283.33 C 323.41 290.04 315.80 298.40 314.03 308.97 C 313.50 312.28 313.11 316.61 316.33 318.73 C 320.52 321.25 325.51 319.22 329.58 317.46 C 337.72 313.88 346.05 307.93 348.36 298.86 C 349.81 293.46 347.72 288.19 346.63 282.97 C 357.26 279.02 368.98 278.15 380.07 280.43 C 387.76 282.04 395.71 284.84 400.91 291.06 C 405.06 296.07 408.17 303.24 405.51 309.65 C 403.51 314.48 398.59 316.96 395.41 320.87 C 396.03 321.04 397.26 321.37 397.88 321.54 C 404.71 319.58 410.17 313.80 411.92 306.95 C 413.41 299.92 411.63 292.35 407.50 286.51 C 401.56 277.64 391.57 272.09 381.15 270.41 C 368.25 267.86 354.90 270.32 343.00 275.59 C 339.10 269.07 335.81 261.80 335.97 254.04 C 335.83 247.83 338.33 242.07 339.86 236.18 C 334.47 232.01 326.96 233.14 321.24 235.99 C 318.12 252.46 308.58 266.57 300.41 280.88 C 296.06 274.55 294.61 266.48 295.48 258.93 C 295.96 254.19 297.83 249.77 299.07 245.22 C 297.76 243.82 296.15 242.40 294.08 242.72 C 289.60 242.90 284.80 242.49 280.76 244.79 C 279.58 248.59 278.65 252.49 277.13 256.18 C 269.75 274.13 261.50 291.71 253.27 309.28 C 252.17 311.78 250.92 314.23 249.28 316.43 C 247.59 309.88 250.06 303.42 251.41 297.08 C 252.83 290.63 254.84 284.34 256.32 277.91 C 256.75 276.17 256.66 274.00 255.07 272.86 C 252.67 270.95 249.48 271.90 246.76 272.32 C 246.50 267.29 247.72 261.63 244.68 257.20 C 242.36 253.71 237.63 253.48 233.93 254.44 C 226.64 256.23 220.39 260.91 215.31 266.30 C 212.90 268.59 211.17 271.65 208.16 273.25 C 199.05 278.56 189.69 283.41 180.50 288.58 C 175.22 283.46 169.66 278.64 163.80 274.19 C 154.01 266.46 143.27 259.18 136.70 248.29 C 131.30 239.53 131.77 228.18 136.08 219.08 C 141.45 207.49 151.07 198.61 161.23 191.20 C 178.81 178.17 198.56 168.08 219.46 161.59 C 231.92 157.83 245.08 155.93 258.08 157.21 C 264.89 157.83 271.74 159.71 277.49 163.49 C 281.96 166.41 284.59 171.74 284.29 177.06 C 284.12 189.78 276.66 201.16 267.49 209.44 C 257.13 218.99 244.41 225.82 230.85 229.58 C 218.29 232.95 204.42 235.11 192.00 230.05 C 187.67 228.48 184.58 224.98 181.02 222.24 C 178.45 224.69 181.04 228.08 182.46 230.45 C 188.91 238.74 199.60 242.62 209.86 242.95 C 231.28 243.79 253.40 238.52 271.09 226.15 C 285.78 215.31 297.97 199.42 300.27 180.88 C 301.72 171.22 299.19 160.76 292.25 153.67 C 283.96 145.26 272.26 141.15 260.77 139.59 C 253.94 138.12 246.93 138.98 240.01 138.73 C 215.46 140.64 192.32 150.39 170.82 161.87 Z" />
<path fill="#e98db8" opacity="1.00" d=" M 227.85 270.89 C 230.60 267.48 234.79 265.77 239.04 265.19 C 239.07 266.82 239.00 268.44 238.81 270.06 C 235.42 285.05 229.43 299.26 223.53 313.40 C 222.40 316.25 220.31 318.53 218.03 320.52 C 214.65 317.71 214.70 313.07 214.34 309.08 C 213.60 295.17 219.52 281.74 227.85 270.89 Z" />
<path fill="#e98db8" opacity="1.00" d=" M 323.96 310.20 C 323.67 301.85 329.25 294.61 335.19 289.31 C 338.94 297.86 332.97 308.39 323.96 310.20 Z" />
<path fill="#e98db8" opacity="1.00" d=" M 151.75 317.75 C 159.43 311.41 167.62 305.59 176.53 301.09 C 182.92 319.66 171.12 341.44 152.94 347.87 C 149.16 349.08 144.57 350.39 141.04 347.83 C 138.32 345.85 138.28 342.09 138.54 339.05 C 139.56 330.42 145.21 323.12 151.75 317.75 Z" />
<path fill="#e98db8" opacity="1.00" d=" M 280.28 320.71 C 284.96 314.76 289.91 308.99 295.07 303.45 C 294.83 311.71 287.94 318.56 280.28 320.71 Z" />
</g>
</svg>
