<?xml version="1.0" encoding="UTF-8" ?>
<!DOCTYPE svg PUBLIC "-//W3C//DTD SVG 1.1//EN" "http://www.w3.org/Graphics/SVG/1.1/DTD/svg11.dtd">
<svg width="1052pt" height="1052pt" viewBox="0 0 1052 1052" version="1.1" xmlns="http://www.w3.org/2000/svg">
<g id="#000000ff">
<path fill="#000000" opacity="1.00" d=" M 509.49 4.66 C 585.60 2.41 662.28 16.69 732.18 47.03 C 788.12 71.10 839.59 105.34 883.86 147.12 C 894.62 158.03 905.82 168.54 915.82 180.18 C 959.08 229.03 993.18 286.05 1015.35 347.44 C 1049.39 440.48 1055.60 543.25 1034.12 639.88 C 1017.45 715.35 983.43 786.85 935.67 847.60 C 887.47 909.14 825.25 959.69 754.99 994.01 C 622.61 1059.82 461.83 1064.62 325.51 1007.63 C 230.36 968.45 147.62 900.07 90.74 814.37 C 44.86 745.37 15.75 665.31 6.96 582.90 C -3.30 488.58 12.13 391.39 52.52 305.42 C 76.37 254.09 108.87 206.82 147.87 165.83 C 153.72 160.02 159.55 154.19 165.36 148.34 C 213.13 102.91 269.41 66.31 330.69 41.92 C 387.44 18.97 448.32 6.48 509.49 4.66 M 495.16 289.67 C 451.20 294.09 409.35 310.22 370.23 330.13 C 348.45 340.94 327.52 353.50 308.05 368.08 C 284.29 386.06 262.47 407.16 246.54 432.51 C 237.66 447.24 230.48 463.61 229.55 481.00 C 229.80 490.50 232.26 499.90 236.44 508.42 C 242.86 521.91 252.58 533.43 262.83 544.15 C 275.34 556.11 288.89 566.93 303.03 576.91 C 319.85 589.11 337.38 600.39 353.31 613.78 C 336.62 623.52 319.88 633.17 303.48 643.38 C 287.55 653.61 271.97 665.44 261.71 681.65 C 252.27 695.48 247.39 713.05 251.17 729.64 C 253.22 738.40 256.52 747.46 263.35 753.65 C 268.65 758.76 276.29 759.88 283.20 761.35 C 303.82 765.03 324.97 759.10 342.88 748.89 C 355.32 741.89 366.32 732.30 374.72 720.74 C 396.03 691.18 401.79 650.37 387.04 616.72 C 399.20 610.17 410.87 602.74 423.14 596.41 C 418.53 613.58 414.23 631.22 415.09 649.13 C 416.25 665.30 421.14 681.42 429.99 695.06 C 437.17 706.46 455.64 707.67 464.18 697.20 C 475.32 682.28 481.53 664.52 489.89 648.04 C 490.41 660.84 487.89 674.40 493.69 686.41 C 495.87 692.16 501.82 696.71 508.12 695.96 C 512.88 694.82 516.92 691.75 520.37 688.38 C 526.80 681.85 531.60 673.96 536.01 665.99 C 555.47 631.92 571.76 596.14 586.49 559.80 C 591.34 577.67 597.42 595.32 606.43 611.55 C 607.83 613.16 606.18 614.85 605.29 616.22 C 593.07 633.18 578.73 648.46 566.13 665.13 C 563.89 668.16 561.15 671.14 560.60 675.04 C 560.06 680.16 563.88 685.64 569.20 686.12 C 585.29 688.47 601.65 683.51 615.51 675.49 C 627.38 668.55 638.12 657.74 640.80 643.79 C 643.42 630.34 638.50 617.09 635.00 604.28 C 647.73 583.13 659.76 561.53 672.75 540.53 C 676.76 557.66 681.16 575.14 690.61 590.20 C 685.54 594.93 680.14 599.34 675.61 604.62 C 663.39 617.38 654.01 634.00 653.62 652.02 C 653.60 657.53 656.54 663.39 662.06 665.14 C 670.25 667.77 678.68 664.42 686.13 661.14 C 695.48 657.07 704.34 651.71 711.82 644.74 C 719.70 637.18 725.60 627.09 726.48 616.05 C 726.86 606.83 723.33 598.13 721.83 589.16 C 749.85 578.91 781.45 578.75 809.55 588.82 C 821.00 593.06 831.91 599.98 838.68 610.38 C 845.50 620.26 849.81 633.33 845.10 645.00 C 841.11 655.07 831.08 660.41 824.13 668.14 C 825.68 668.60 827.26 669.08 828.83 669.57 C 841.66 665.51 852.42 655.37 856.86 642.62 C 860.69 630.93 858.96 618.07 854.20 606.92 C 847.52 592.23 835.45 580.35 821.31 572.78 C 808.06 565.58 792.98 562.65 778.07 561.58 C 756.15 560.54 734.24 565.66 714.30 574.58 C 706.61 561.61 700.14 547.36 699.53 532.05 C 698.79 518.21 704.03 505.16 707.68 492.08 C 704.15 489.72 700.28 487.74 696.06 487.07 C 687.04 485.31 677.88 487.95 669.66 491.58 C 666.47 506.50 661.41 521.03 654.44 534.62 C 645.94 552.23 635.60 568.86 625.74 585.72 C 615.63 571.33 613.34 552.90 615.70 535.82 C 617.22 527.29 620.31 519.16 622.72 510.86 C 620.27 508.64 617.68 505.74 614.05 506.00 C 604.33 505.97 594.00 505.48 585.11 510.11 C 581.97 521.72 578.29 533.20 573.31 544.17 C 560.18 575.28 545.96 605.90 531.62 636.46 C 527.84 644.40 524.63 652.72 519.28 659.79 C 515.76 647.38 519.65 634.57 522.62 622.46 C 525.64 607.71 530.30 593.35 533.69 578.69 C 534.28 575.51 534.49 571.62 531.86 569.26 C 527.11 564.82 519.94 566.48 514.26 567.72 C 512.53 563.30 514.36 558.61 514.01 554.05 C 513.66 547.11 512.97 539.41 507.92 534.14 C 502.87 528.78 494.71 528.77 488.01 530.16 C 471.25 534.23 457.27 545.40 445.93 557.98 C 442.45 562.08 439.08 566.48 434.34 569.23 C 415.08 580.43 395.31 590.73 375.88 601.62 C 358.91 584.50 339.37 570.29 320.45 555.47 C 305.47 543.55 291.04 530.16 282.01 513.03 C 276.31 501.33 275.37 487.87 277.22 475.14 C 280.80 454.67 293.11 436.98 307.17 422.18 C 319.35 409.85 333.29 399.44 347.49 389.55 C 366.87 376.21 387.43 364.63 408.80 354.79 C 444.35 338.73 482.52 325.85 521.99 326.49 C 541.33 326.36 561.44 329.51 577.99 340.11 C 586.95 345.89 592.60 356.34 592.54 367.00 C 592.62 381.14 588.53 395.20 581.38 407.36 C 572.32 423.34 558.96 436.42 544.43 447.44 C 529.90 458.56 513.54 467.18 496.43 473.57 C 475.47 480.92 453.37 486.24 431.03 485.52 C 420.00 485.62 408.93 483.33 398.75 479.09 C 390.29 475.66 384.02 468.82 376.98 463.29 C 375.93 465.25 374.32 467.35 375.26 469.70 C 376.89 475.11 380.18 479.90 383.90 484.10 C 392.53 492.87 403.57 499.17 415.42 502.44 C 430.51 506.79 446.44 506.44 461.96 505.46 C 485.16 504.01 508.12 498.73 529.64 489.91 C 546.96 482.68 563.44 473.07 577.37 460.40 C 601.51 439.10 620.70 410.35 625.06 377.93 C 627.64 362.75 625.26 346.71 618.02 333.10 C 609.04 316.82 592.61 306.17 575.78 299.31 C 557.99 292.60 538.92 289.41 519.95 288.98 C 511.71 289.84 503.42 289.24 495.16 289.67 Z" />
<path fill="#000000" opacity="1.00" d=" M 475.60 562.68 C 481.33 556.32 489.78 553.40 498.00 551.98 C 497.96 556.15 498.32 560.39 497.37 564.50 C 490.30 594.78 478.23 623.54 466.32 652.17 C 463.74 658.56 459.37 664.18 453.87 668.33 C 451.25 665.32 448.92 661.93 447.98 658.00 C 442.25 631.05 449.82 602.89 463.78 579.65 C 467.40 573.79 471.09 567.91 475.60 562.68 Z" />
<path fill="#000000" opacity="1.00" d=" M 686.14 614.96 C 689.71 610.24 694.04 606.19 698.27 602.09 C 706.02 618.39 695.95 639.44 679.27 645.28 C 677.69 645.83 676.07 646.27 674.48 646.76 C 674.09 635.12 679.06 623.96 686.14 614.96 Z" />
<path fill="#000000" opacity="1.00" d=" M 318.49 659.51 C 333.88 647.02 350.25 635.61 368.01 626.75 C 375.76 649.79 370.63 676.01 356.61 695.60 C 346.62 709.48 332.59 720.99 315.99 725.83 C 309.47 727.69 302.08 729.40 295.70 726.16 C 290.80 723.84 288.37 718.46 288.12 713.27 C 287.65 704.00 290.29 694.73 294.68 686.61 C 300.39 675.88 308.97 666.95 318.49 659.51 Z" />
<path fill="#000000" opacity="1.00" d=" M 583.06 668.59 C 593.24 655.82 603.56 643.08 615.08 631.49 C 614.68 649.41 599.94 664.49 583.06 668.59 Z" />
</g>
</svg>
