<?xml version="1.0" encoding="UTF-8" ?>
<!DOCTYPE svg PUBLIC "-//W3C//DTD SVG 1.1//EN" "http://www.w3.org/Graphics/SVG/1.1/DTD/svg11.dtd">
<svg width="1000pt" height="1000pt" viewBox="0 0 1000 1000" version="1.1" xmlns="http://www.w3.org/2000/svg">
<g id="#ffffffff">
</g>
<g id="#4d4d4dff">
<path fill="#4d4d4d" opacity="1.00" d=" M 306.90 38.87 C 415.85 -7.14 541.25 -12.32 653.72 24.10 C 725.20 47.07 791.29 86.52 845.52 138.43 C 894.77 185.37 934.35 242.44 960.86 305.12 C 984.45 360.52 997.56 420.27 1000.00 480.42 L 1000.00 520.61 C 997.81 570.76 988.41 620.62 971.51 667.91 C 946.37 738.71 904.87 803.56 851.37 856.28 C 798.86 908.05 734.86 948.15 665.19 972.39 C 617.78 989.02 567.83 998.12 517.66 1000.00 L 482.38 1000.00 C 421.60 997.67 361.17 984.61 305.19 960.73 C 244.71 935.14 189.42 897.39 143.45 850.49 C 90.99 797.20 50.69 731.98 26.69 661.15 C 12.20 618.53 3.55 573.92 1.05 528.97 C 0.51 522.75 0.69 516.50 0.00 510.30 L 0.00 488.83 C 0.79 482.93 0.52 476.96 1.07 471.04 C 2.58 444.48 6.20 418.05 11.94 392.07 C 28.18 317.87 61.87 247.61 109.33 188.32 C 161.34 123.06 229.91 71.09 306.90 38.87 M 242.54 247.88 C 210.47 249.79 178.43 253.42 146.96 260.00 C 136.88 262.12 126.54 264.84 118.28 271.30 C 114.43 274.30 112.08 279.08 112.22 283.99 C 112.18 312.98 112.22 341.97 112.20 370.97 C 111.88 378.06 117.04 383.87 122.53 387.66 C 132.55 394.59 144.37 398.27 156.00 401.47 C 175.03 406.38 194.54 409.12 214.08 411.03 C 244.27 413.85 274.65 414.38 304.95 413.23 C 331.08 412.05 357.25 409.73 382.91 404.45 C 397.90 401.19 413.11 397.35 426.44 389.50 C 432.63 385.61 439.19 379.96 439.48 372.09 C 439.51 342.03 439.51 311.97 439.48 281.91 C 439.59 277.36 437.55 272.75 433.57 270.35 C 421.11 262.78 406.48 260.31 392.42 257.41 C 343.05 248.53 292.64 245.20 242.54 247.88 M 497.62 392.40 C 485.12 402.20 478.77 417.79 476.65 433.16 C 474.91 446.39 474.61 460.21 478.96 472.99 C 483.69 488.16 493.74 501.00 505.16 511.78 C 517.39 524.23 530.14 536.19 541.94 549.06 C 552.50 560.90 555.07 577.68 553.51 593.00 C 552.98 596.84 551.78 601.27 547.98 603.12 C 542.99 605.51 535.89 605.24 532.29 600.55 C 528.97 596.29 528.53 590.64 528.37 585.44 C 528.24 573.99 528.40 562.54 528.29 551.09 C 510.70 551.16 493.11 551.13 475.51 551.11 C 475.80 570.13 474.20 589.43 478.50 608.14 C 481.50 621.70 488.12 635.23 500.01 643.09 C 514.66 652.80 532.96 654.43 550.09 653.84 C 565.19 653.27 581.16 648.05 590.83 635.84 C 602.66 620.66 606.04 600.83 606.90 582.07 C 608.00 564.23 605.96 545.68 597.32 529.76 C 591.74 519.17 583.42 510.37 575.10 501.90 C 563.15 490.20 550.89 478.82 538.98 467.07 C 533.08 461.03 527.83 453.61 526.92 444.99 C 526.35 440.39 527.38 435.08 531.26 432.14 C 534.82 429.72 539.54 429.34 543.60 430.58 C 547.58 431.83 550.26 435.87 550.40 439.96 C 550.61 446.60 550.70 453.24 550.74 459.89 C 569.02 459.85 587.29 459.83 605.57 459.90 C 605.37 439.74 603.14 418.10 590.91 401.33 C 580.76 387.64 563.38 382.00 547.00 380.84 C 529.99 379.45 511.42 381.43 497.62 392.40 M 651.98 388.04 C 639.27 394.48 629.87 406.46 625.60 419.95 C 620.09 435.69 621.22 452.58 621.12 468.98 C 621.12 502.63 621.12 536.29 621.12 569.94 C 621.16 579.66 620.83 589.43 622.34 599.07 C 624.41 613.75 630.09 628.57 641.29 638.71 C 652.71 649.38 668.68 653.63 683.98 653.92 C 689.69 654.23 695.24 652.72 700.84 651.85 C 715.13 661.20 729.37 670.62 743.65 679.97 C 749.75 669.33 755.76 658.63 761.83 647.96 C 754.12 643.09 746.37 638.27 738.74 633.28 C 743.18 627.49 746.57 620.94 748.84 614.01 C 754.24 598.61 753.77 582.09 753.67 566.01 C 753.67 531.36 753.67 496.71 753.67 462.06 C 753.61 453.37 753.98 444.63 752.77 436.00 C 751.32 424.64 747.89 413.27 741.11 403.90 C 731.80 390.51 715.97 383.04 700.07 381.25 C 683.88 379.46 666.70 380.49 651.98 388.04 M 779.27 383.08 C 779.25 472.55 779.27 562.02 779.27 651.49 C 815.61 651.52 851.96 651.52 888.30 651.49 C 888.33 636.26 888.37 621.03 888.28 605.80 C 869.92 605.83 851.55 605.78 833.18 605.83 C 833.09 531.59 833.13 457.35 833.17 383.11 C 815.20 383.04 797.24 382.92 779.27 383.08 M 112.21 415.98 C 112.20 445.00 112.19 474.03 112.21 503.05 C 112.07 510.04 117.36 515.54 122.66 519.37 C 132.11 525.74 143.06 529.40 153.94 532.47 C 175.52 538.28 197.76 541.17 219.98 543.11 C 245.59 545.25 271.32 545.77 297.01 545.07 C 324.86 544.14 352.76 541.91 380.15 536.59 C 395.77 533.31 411.64 529.51 425.61 521.54 C 432.32 517.54 439.57 511.51 439.50 502.98 C 439.50 475.32 439.49 447.66 439.50 420.00 C 439.72 413.68 439.95 406.08 434.04 402.09 C 427.89 408.17 419.88 411.82 411.92 414.90 C 394.90 421.21 376.94 424.50 359.03 427.09 C 327.90 431.32 296.44 432.71 265.04 432.29 C 238.62 431.84 212.18 430.11 186.04 426.13 C 169.42 423.45 152.77 420.06 137.07 413.84 C 130.41 411.06 123.79 407.80 118.48 402.83 C 114.27 405.76 112.03 410.91 112.21 415.98 M 411.02 550.08 C 393.26 556.50 374.56 559.80 355.91 562.36 C 305.90 568.58 255.16 568.80 205.06 563.48 C 185.10 561.18 165.11 558.00 145.91 551.89 C 136.67 548.79 127.30 545.18 119.76 538.83 C 115.00 541.88 111.87 547.28 112.21 553.01 C 112.23 582.37 112.14 611.73 112.25 641.09 C 112.96 650.30 121.47 656.16 128.93 660.16 C 147.90 669.69 169.10 673.46 189.89 676.75 C 237.26 683.32 285.39 683.88 333.03 680.05 C 355.88 677.95 378.78 674.96 400.88 668.63 C 411.22 665.52 421.67 661.87 430.42 655.37 C 435.24 651.69 439.68 646.40 439.50 639.98 C 439.51 611.98 439.49 583.98 439.51 555.99 C 439.48 552.12 439.75 548.12 438.37 544.43 C 437.27 541.77 434.91 539.99 432.73 538.26 C 426.39 543.65 418.77 547.24 411.02 550.08 Z" />
<path fill="#4d4d4d" opacity="1.00" d=" M 131.42 330.61 C 135.58 329.11 139.73 334.45 137.06 338.07 C 135.27 341.40 129.94 341.05 128.41 337.67 C 126.97 335.01 128.54 331.42 131.42 330.61 Z" />
<path fill="#4d4d4d" opacity="1.00" d=" M 683.37 430.51 C 688.16 428.90 694.38 430.50 696.65 435.34 C 698.89 440.21 699.46 445.67 699.50 450.98 C 699.50 493.98 699.49 536.99 699.51 580.00 C 699.32 586.53 698.97 593.30 696.44 599.42 C 692.92 606.82 680.41 606.10 677.37 598.61 C 674.43 591.50 674.30 583.62 674.32 576.04 C 674.37 533.44 674.23 490.84 674.39 448.24 C 674.79 441.65 676.16 432.93 683.37 430.51 Z" />
<path fill="#4d4d4d" opacity="1.00" d=" M 136.12 469.12 C 139.61 467.55 143.88 471.22 142.80 474.94 C 142.12 478.90 136.38 480.19 134.04 476.96 C 131.74 474.47 133.10 470.31 136.12 469.12 Z" />
<path fill="#4d4d4d" opacity="1.00" d=" M 136.41 600.56 C 139.74 599.34 143.58 602.59 142.85 606.10 C 142.41 609.73 137.62 611.82 134.80 609.25 C 131.62 606.95 132.70 601.65 136.41 600.56 Z" />
</g>
</svg>
