<?xml version="1.0" encoding="UTF-8" ?>
<!DOCTYPE svg PUBLIC "-//W3C//DTD SVG 1.1//EN" "http://www.w3.org/Graphics/SVG/1.1/DTD/svg11.dtd">
<svg width="1042pt" height="1042pt" viewBox="0 0 1042 1042" version="1.1" xmlns="http://www.w3.org/2000/svg">
<g id="#ffffffff">
</g>
<g id="#000000ff">
<path fill="#000000" opacity="1.00" d=" M 510.55 0.00 L 532.31 0.00 C 575.71 1.15 619.03 7.17 660.87 18.89 C 736.21 39.75 806.64 78.01 865.28 129.71 C 913.49 172.09 953.82 223.43 983.48 280.36 C 1010.87 332.78 1029.08 389.94 1037.22 448.51 C 1039.54 464.13 1040.56 479.89 1042.00 495.60 L 1042.00 547.10 C 1040.08 569.46 1038.12 591.86 1033.97 613.94 C 1019.88 693.25 986.68 768.99 938.34 833.39 C 891.94 895.42 831.50 946.87 762.88 982.82 C 705.83 1012.83 643.09 1031.90 579.02 1038.93 C 567.52 1040.31 555.94 1040.88 544.42 1042.00 L 497.68 1042.00 C 472.01 1040.09 446.32 1037.59 421.05 1032.49 C 365.39 1021.77 311.58 1001.68 262.42 973.49 C 200.73 938.18 146.40 890.09 103.82 833.17 C 55.12 768.31 21.93 691.89 7.99 611.98 C 3.29 586.09 1.16 559.82 0.00 533.56 L 0.00 507.69 C 0.69 501.46 0.51 495.19 1.08 488.96 C 3.44 449.61 10.29 410.54 21.46 372.74 C 43.85 296.98 83.91 226.56 137.42 168.45 C 183.54 118.25 239.58 77.16 301.40 48.40 C 366.70 17.77 438.51 1.64 510.55 0.00 M 245.56 258.81 C 215.68 260.84 185.87 264.34 156.51 270.32 C 145.27 272.54 133.64 275.20 124.21 282.07 C 119.71 285.14 116.88 290.50 117.00 295.97 C 117.00 326.32 117.00 356.66 117.00 387.00 C 116.95 393.24 121.12 398.51 125.77 402.22 C 134.59 409.05 145.22 412.93 155.77 416.15 C 181.23 423.62 207.69 426.85 234.06 429.00 C 277.40 432.16 321.03 431.64 364.22 426.72 C 385.86 424.01 407.60 420.49 428.19 413.11 C 437.23 409.53 446.64 405.56 453.22 398.11 C 456.16 394.84 457.88 390.46 457.76 386.04 C 457.72 355.02 457.78 324.00 457.73 292.98 C 457.73 287.30 453.93 282.31 448.79 280.16 C 436.19 273.44 421.95 271.01 408.11 268.19 C 354.56 258.59 299.85 255.27 245.56 258.81 M 514.45 412.43 C 503.48 423.38 498.04 438.72 496.36 453.88 C 494.91 466.54 494.84 479.69 498.83 491.92 C 503.50 507.17 513.25 520.37 524.67 531.29 C 537.73 544.55 551.23 557.40 563.92 571.02 C 574.19 581.84 577.64 597.38 577.18 611.91 C 576.82 617.05 576.88 623.00 573.06 626.97 C 567.61 631.46 558.00 631.18 553.85 625.04 C 550.20 619.46 550.31 612.48 550.24 606.07 C 550.30 595.50 550.16 584.93 550.32 574.36 C 532.05 574.11 513.77 574.31 495.49 574.26 C 495.82 592.25 494.43 610.39 497.54 628.22 C 499.67 640.34 503.89 652.48 512.06 661.90 C 519.47 670.57 530.22 675.72 541.15 678.38 C 552.55 681.24 564.40 681.29 576.07 680.84 C 590.97 679.66 606.50 673.95 615.79 661.71 C 626.16 648.13 630.16 630.90 631.59 614.17 C 632.82 600.27 632.92 586.12 629.74 572.47 C 626.63 558.23 619.36 545.14 609.66 534.35 C 596.45 519.57 581.47 506.54 567.43 492.57 C 559.93 485.73 552.36 478.00 549.58 467.93 C 548.31 462.81 547.95 456.75 551.19 452.25 C 554.28 447.98 560.23 447.04 565.11 448.08 C 569.46 448.88 572.90 452.78 573.40 457.15 C 573.88 464.42 573.73 471.71 573.75 479.00 C 592.76 479.00 611.77 479.01 630.78 478.99 C 630.52 467.23 629.86 455.37 626.99 443.92 C 623.58 430.40 617.20 416.70 605.48 408.46 C 592.07 398.96 575.10 396.35 559.00 396.49 C 542.97 396.48 526.15 400.93 514.45 412.43 M 664.09 416.11 C 651.87 429.56 647.61 448.24 647.26 465.96 C 647.24 508.66 647.25 551.36 647.25 594.05 C 647.33 602.33 646.94 610.64 647.81 618.90 C 649.06 631.49 652.39 644.14 659.37 654.83 C 666.39 665.86 677.64 673.91 690.13 677.62 C 701.74 681.06 714.24 682.35 726.13 679.60 C 727.60 679.52 729.24 678.56 730.66 679.25 C 745.39 688.77 759.94 698.59 774.69 708.09 C 780.92 697.08 787.16 686.08 793.40 675.09 C 785.39 669.93 777.21 665.05 769.33 659.70 C 780.78 645.12 784.65 626.17 784.99 608.01 C 785.02 566.68 784.99 525.34 785.00 484.01 C 784.92 473.04 785.49 461.97 783.61 451.10 C 781.13 434.67 773.49 418.13 759.49 408.46 C 744.42 397.71 725.08 395.48 707.07 396.85 C 691.16 398.06 674.86 403.88 664.09 416.11 M 812.01 399.25 C 811.99 492.33 812.00 585.41 812.00 678.50 C 849.75 678.50 887.50 678.50 925.25 678.49 C 925.25 662.75 925.26 647.00 925.25 631.25 C 906.08 631.25 886.92 631.26 867.75 631.25 C 867.74 553.92 867.75 476.58 867.75 399.25 C 859.16 399.22 850.58 399.30 842.00 399.22 C 832.01 398.55 822.01 399.49 812.01 399.25 M 123.18 420.01 C 119.21 423.07 116.94 428.02 117.00 433.02 C 117.03 463.75 116.94 494.48 117.04 525.21 C 118.17 535.16 127.42 541.25 135.59 545.43 C 154.14 554.45 174.65 558.34 194.86 561.67 C 236.84 567.82 279.44 569.10 321.79 567.21 C 348.31 565.86 374.85 563.37 400.84 557.82 C 415.90 554.49 431.12 550.44 444.45 542.45 C 451.00 538.45 457.63 532.30 457.74 524.06 C 457.76 494.37 457.73 464.68 457.76 434.98 C 458.00 429.31 457.31 422.60 452.22 419.10 C 447.50 423.64 441.78 426.99 435.82 429.64 C 417.52 437.62 397.75 441.44 378.12 444.46 C 336.36 450.46 293.99 451.61 251.89 449.68 C 223.75 448.25 195.57 445.47 168.09 439.08 C 152.30 435.17 135.98 430.41 123.18 420.01 M 450.73 560.95 C 440.90 569.38 428.29 573.42 416.10 577.11 C 392.93 583.57 368.97 586.60 345.05 588.66 C 301.50 592.33 257.61 591.77 214.15 587.20 C 192.88 584.77 171.60 581.41 151.19 574.83 C 141.81 571.64 132.33 567.95 124.67 561.49 C 120.38 564.63 117.03 569.47 117.00 574.95 C 117.00 605.66 116.98 636.37 117.02 667.08 C 117.36 676.47 125.62 682.79 133.19 686.91 C 153.07 697.33 175.46 701.28 197.40 704.79 C 243.06 711.21 289.38 712.17 335.36 709.16 C 360.83 707.38 386.33 704.45 411.12 698.16 C 423.91 694.75 436.89 690.73 447.78 682.96 C 452.96 679.27 457.60 673.69 457.75 667.05 C 457.76 636.37 457.74 605.68 457.75 575.00 C 458.10 569.40 455.74 563.78 450.73 560.95 Z" />
<path fill="#000000" opacity="1.00" d=" M 136.35 344.43 C 140.69 342.22 145.71 347.92 143.12 351.99 C 141.60 355.12 137.12 355.65 134.68 353.32 C 131.94 350.85 132.82 345.70 136.35 344.43 Z" />
<path fill="#000000" opacity="1.00" d=" M 711.33 448.50 C 716.41 446.54 723.20 448.09 725.77 453.22 C 728.21 458.42 728.88 464.27 728.76 469.95 C 728.74 514.97 728.74 559.98 728.76 605.00 C 728.66 611.87 728.18 619.01 725.22 625.31 C 721.04 632.14 709.35 631.34 705.79 624.30 C 702.93 617.98 702.55 610.94 702.32 604.12 C 702.17 564.06 702.27 524.00 702.27 483.94 C 703.10 475.25 701.40 466.34 703.79 457.82 C 704.86 453.87 707.37 450.01 711.33 448.50 Z" />
<path fill="#000000" opacity="1.00" d=" M 141.46 488.63 C 145.28 486.76 150.09 490.67 148.94 494.80 C 148.22 499.11 141.73 500.45 139.35 496.84 C 137.17 494.22 138.48 489.99 141.46 488.63 Z" />
<path fill="#000000" opacity="1.00" d=" M 141.49 625.67 C 144.97 623.92 149.51 627.11 149.03 630.97 C 149.04 635.19 143.19 637.69 140.15 634.76 C 137.12 632.42 138.01 627.07 141.49 625.67 Z" />
</g>
</svg>
